<?xml version="1.0" standalone="no"?>
<!DOCTYPE svg PUBLIC "-//W3C//DTD SVG 1.1//EN" "http://www.w3.org/Graphics/SVG/1.1/DTD/svg11.dtd">
<svg xmlns="http://www.w3.org/2000/svg">
<metadata>Generated by Fontastic.me</metadata>
<defs>
<font id="tradesy-icons" horiz-adv-x="512">
<font-face font-family="tradesy-icons" units-per-em="512" ascent="480" descent="-32"/>
<missing-glyph horiz-adv-x="512" />

<glyph unicode="&#57344;" d="M492 402c-13-20-29-36-48-50l0-12c0-128-98-276-276-276-55 0-105 16-148 44 8-1 15-2 23-2 45 0 87 16 120 42-42 1-78 29-90 67 6-1 12-2 18-2 9 0 18 2 26 4-44 9-78 48-78 95l0 1c13-7 28-12 44-12-26 17-43 47-43 81 0 18 5 34 13 48 48-59 119-97 199-101-2 7-2 14-2 22 0 54 43 97 97 97 28 0 52-12 70-31 22 4 43 13 62 24-7-23-23-42-43-54 20 2 39 7 56 15z"/>
<glyph unicode="&#57345;" d="M288 320l64 0-8-64-56 0 0-192-83 0 0 192-45 0 0 64 45 0 0 43c0 54 23 85 91 85l56 0 0-64-34 0c-27 0-30-9-30-26z"/>
<glyph unicode="&#57346;" d="M256 480c124 0 224-100 224-224 0-124-100-224-224-224-22 0-44 3-64 9 8 14 18 31 23 48 3 10 16 62 16 62 8-15 30-28 54-28 72 0 121 65 121 153 0 66-56 129-142 129-106 0-160-76-160-140 0-39 15-73 46-86 5-2 10 0 12 6 1 4 3 14 4 18 2 6 1 7-3 12-9 11-15 24-15 44 0 57 42 107 110 107 60 0 94-36 94-85 0-65-29-119-71-119-24 0-42 19-36 43 7 28 20 59 20 79 0 18-10 34-30 34-24 0-43-25-43-58 0-21 7-36 7-36 0 0-25-104-29-122-4-17-5-35-4-51-79 35-134 113-134 205 0 124 100 224 224 224z"/>
<glyph unicode="&#57347;" d="M511 263c1 2 1 5 0 8 0 1-1 2-2 3l-107 107c-4 4-11 4-15 0-4-4-4-11 0-15l89-89-465 0c-6 0-11-4-11-10 0-6 5-11 11-11l465 0-89-88c-4-5-4-11 0-16 2-2 5-3 8-3 2 0 5 1 7 3l107 107c1 1 2 2 2 4z"/>
<glyph unicode="&#57348;" d="M501 277l-465 0 89 89c4 4 4 11 0 15-4 4-11 4-15 0l-107-107c-1-1-2-2-2-3-1-3-1-6 0-8 0-2 1-3 2-4l107-107c2-2 5-3 7-3 3 0 6 1 8 3 4 5 4 11 0 16l-89 88 465 0c6 0 11 5 11 11 0 6-5 10-11 10z"/>
<glyph unicode="&#57349;" d="M352 384l-127-128 127-128-32-32-160 160 160 160z"/>
<glyph unicode="&#57350;" d="M352 397l-150-141 150-141-21-19-171 160 171 160z"/>
<glyph unicode="&#57351;" d="M341 429c59 0 107-49 107-108 0-30-12-57-33-77l-148-150-11-11-11 11-151 153c-19 20-30 46-30 74 0 59 48 108 107 108 34 0 65-16 85-42 20 26 51 42 85 42z"/>
<glyph unicode="&#57352;" d="M341 414c-38 0-71-24-85-57-14 33-47 57-85 57-51 0-92-42-92-93 0-25 10-47 26-64l151-152 148 150c17 17 29 40 29 66 0 51-41 93-92 93z m0 15c59 0 107-49 107-108 0-30-12-57-33-77l-148-150-11-11-11 11-151 153c-19 20-30 46-30 74 0 59 48 108 107 108 34 0 65-16 85-42 20 26 51 42 85 42z"/>
<glyph unicode="&#57353;" d="M160 384l32 32 160-160-160-160-32 32 127 128z"/>
<glyph unicode="&#57354;" d="M256 128c-71 0-128 57-128 128 0 71 57 128 128 128l0 44 96-64-96-56 0 56c-60 0-108-48-108-108 0-60 48-108 108-108 60 0 108 48 108 108l20 0c0-71-57-128-128-128z"/>
<glyph unicode="&#57355;" d="M96 239l0 32 320 0 0-32z m0 96l0 32 320 0 0-32z m0-192l0 32 320 0 0-32z"/>
<glyph unicode="&#57356;" d="M344 214l-4-7 108-109-34-34-108 109-7-5c-24-15-53-25-83-25-84 0-152 69-152 153 0 84 68 152 152 152 84 0 152-68 152-152 0-30-9-58-24-82z m-43 167c-23 23-53 35-85 35-32 0-62-12-85-35-23-23-35-53-35-85 0-32 12-62 35-85 23-23 53-35 85-35 32 0 62 12 85 35 23 23 36 53 36 85 0 32-13 62-36 85z"/>
<glyph unicode="&#57357;" d="M239 173l0-58c0-5 4-9 8-9 5 0 9 4 9 9l0 58c5 3 9 8 9 15 0 9-8 17-18 17-9 0-17-8-17-17 0-7 4-12 9-15z m136 202c0 66-51 137-128 137-76 0-128-71-128-137l0-68-51 0 0-307 359 0 0 307-52 0z m-238 0c0 58 44 120 110 120 67 0 111-62 111-120l0-68-221 0z m273-358l-325 0 0 273 325 0z"/>
<glyph unicode="&#57358;" d="M13 4c0 0 1 0 2 0l136 34c0 0 1 1 1 1 0 0 0 0 1 0 0 0 1 1 2 2l333 332c20 20 29 51 8 72l-51 51c-7 8-17 12-28 12-15 0-31-8-44-20l-332-333c-1-1-2-2-2-2 0-1 0-1 0-1 0 0-1-1-1-1l-34-136c0-3 0-6 2-9 2-1 4-2 7-2z m332 432l91-91-287-286-90 90z m26 25l90-90-13-14-91 91z m46 30c6 0 12-2 16-7l51-51c13-13 6-34-8-48l-3-2-90 90 2 3c10 9 22 15 32 15z m-366-359l81-81-108-27z"/>
<glyph unicode="&#57359;" d="M194 510c-2 1-4 2-6 2l-179 0c-5 0-9-4-9-9l0-179c0-2 1-4 2-6l313-315c1-2 4-3 6-3 0 0 0 0 0 0 2 0 4 1 6 2l183 183c1 2 2 4 2 6 0 2-1 5-3 6z m127-489l-304 307 0 167 167 0 307-304z m-205 426c-28 0-51-23-51-51 0-29 23-52 51-52 29 0 52 23 52 52 0 28-23 51-52 51z m0-86c-19 0-34 16-34 35 0 19 15 34 34 34 19 0 35-15 35-34 0-19-16-35-35-35z"/>
<glyph unicode="&#57360;" d="M256 512c-141 0-256-115-256-256 0-141 115-256 256-256 141 0 256 115 256 256 0 141-115 256-256 256z m0-495c-132 0-239 107-239 239 0 132 107 239 239 239 132 0 239-107 239-239 0-132-107-239-239-239z m60 334c-21 0-45-12-60-41-15 29-39 41-60 41-33 0-67-28-67-74 0-68 117-153 122-157 1-1 3-2 5-2 2 0 4 1 5 2 5 4 122 89 122 157 0 46-34 74-67 74z m-60-213c-35 26-110 92-110 139 0 35 26 57 50 57 25 0 44-20 52-52 1-4 4-6 8-6 4 0 7 2 8 6 8 32 27 52 52 52 24 0 50-22 50-57 0-47-75-113-110-139z"/>
<glyph unicode="&#57361;" d="M384 307l-88 0-32 80c-1 3-5 6-8 6-3 0-7-3-8-6l-32-80-88 0c-4 0-7-2-8-5-1-4 0-7 2-10l70-60-30-102c-1-3 1-7 4-9 3-2 7-2 10 0l80 56 80-56c2-1 4-2 5-2 2 0 4 1 5 2 3 2 5 6 4 9l-30 102 70 60c2 3 3 6 2 10-1 3-4 5-8 5z m-80-66c-2-2-3-6-2-9l24-83-65 46c-2 1-3 1-5 1-2 0-3 0-5-1l-65-46 24 83c1 3 0 7-2 9l-57 49 71 0c3 0 6 2 8 5l26 66 26-66c2-3 5-5 8-5l71 0z m208 15c0 19-11 37-27 45 12 15 15 35 8 53-8 18-24 30-43 32 5 17 1 37-13 51-10 10-23 15-36 15-6 0-11-1-15-2-2 18-14 35-32 43-18 7-38 3-53-8-8 16-26 27-45 27-19 0-37-11-45-27-15 11-35 15-53 7-18-7-30-24-32-42-4 1-9 2-15 2-13 0-26-5-36-15-14-14-18-34-13-52-19-1-35-13-43-31-7-18-4-38 8-53-16-8-27-26-27-45 0-19 11-37 27-45-12-15-15-35-8-53 8-18 24-30 43-32-5-17-1-37 13-51 10-10 23-15 36-15 6 0 11 1 15 2 2-18 14-35 32-43 18-7 38-3 53 8 8-16 26-27 45-27 19 0 37 11 45 27 15-11 35-15 53-8 18 8 30 25 32 43 4-1 9-2 15-2 13 0 26 5 36 15 14 14 18 34 13 51 19 2 35 14 43 32 7 18 4 38-8 53 16 8 27 26 27 45z m-45-34c-4 0-6-3-7-7-1-3 1-6 4-8 14-9 19-27 13-42-6-13-18-22-32-22-2 0-5 1-7 1-4 1-7-1-9-4-2-2-2-6 0-9 9-14 8-32-4-44-12-11-31-13-44-4-3 2-7 2-9 0-3-2-5-5-4-9 3-16-5-32-21-39-15-6-33 0-42 13-2 3-5 5-8 4-4-1-6-3-7-7-3-16-17-28-34-28-17 0-31 12-34 28 0 4-3 6-7 7 0 0-1 0-1 0-3 0-6-1-7-4-9-13-27-19-42-13-16 7-24 23-21 39 1 4-1 7-4 9-2 2-6 2-9 0-13-9-32-7-44 4-12 12-13 30-4 44 2 3 2 7 0 9-2 3-5 5-9 4-16-3-32 5-39 21-6 15-1 33 13 42 3 2 5 5 4 8-1 4-3 7-7 7-16 3-28 17-28 34 0 17 12 31 28 34 4 0 6 3 7 7 1 3-1 6-4 8-14 9-19 27-13 42 6 13 18 22 32 22 2 0 5-1 7-1 4-1 7 1 9 4 2 2 2 6 0 9-9 14-8 32 4 44 12 11 31 13 44 4 3-2 7-2 9 0 3 2 5 5 4 9-3 16 5 32 21 39 15 6 33 0 42-13 2-3 5-5 8-4 4 1 7 3 7 7 3 16 17 28 34 28 17 0 31-12 34-28 0-4 3-6 7-7 3-1 6 1 8 4 9 13 27 19 42 13 16-7 24-23 21-39-1-4 1-7 4-9 2-2 6-2 9 0 13 9 33 7 44-4 12-12 13-30 4-44-2-3-2-7 0-9 2-3 5-5 9-4 2 0 5 1 7 1 14 0 26-9 32-22 6-15 1-33-13-42-3-2-5-5-4-8 1-4 3-7 7-7 16-3 28-17 28-34 0-17-12-31-28-34z"/>
<glyph unicode="&#57362;" d="M358 307l-70 0-24 70c-1 4-4 6-8 6 0 0 0 0 0 0-3 0-7-2-8-6l-24-70-79 0c-4 0-7-2-8-6-1-3 0-7 3-9l63-47-32-80c-1-3 0-7 3-9 3-3 7-3 10-1l72 48 72-48c2-1 3-1 5-1 2 0 4 0 5 2 3 2 4 6 3 9l-32 80 55 47c3 3 4 6 2 10-1 3-4 5-8 5z m-65-53c-3-2-4-6-2-10l24-60-54 36c-3 2-6 2-9 0l-55-36 24 60c2 4 1 8-3 10l-47 36 59 0c4 0 7 2 8 6l18 52 18-52c1-4 4-6 8-6l53 0z m168 258l-409 0c-5 0-9-4-9-9l0-156c0-146 80-278 209-346 2-1 3-1 4-1 2 0 3 0 4 1 129 68 209 200 209 346l0 156c0 5-3 9-8 9z m-9-17l0-51-392 0 0 51z m-196-477c-121 66-196 191-196 329l0 80 392 0 0-80c0-138-75-263-196-329z"/>
<glyph unicode="&#57366;" d="M351 22c14-9 30-13 47-13 22 0 43 8 59 24l29 29c23 23 23 60 0 83l-53 54c-11 11-26 17-42 17-15 0-30-6-41-17l-12-13c-55 45-107 97-152 152l13 12c23 23 23 60 0 83l-54 53c-11 11-25 17-41 17-16 0-31-6-42-17l-29-29c-28-28-32-72-11-106 86-129 200-243 329-329z m-306 423l29 29c8 8 19 12 30 12 11 0 21-4 29-12l54-53c16-16 16-43 0-59l-18-18c-3-3-3-8-1-11 49-59 106-116 165-165 3-2 8-2 11 1l18 18c8 7 18 12 29 12 12 0 22-5 30-12l53-54c16-16 16-42 0-59l-29-29c-13-12-29-19-47-19-13 0-26 3-37 11-128 84-240 196-324 324-18 26-14 62 8 84z"/>
<glyph unicode="&#57367;" d="M469 427l-426 0c-23 0-43-20-43-43l0-256c0-23 20-43 43-43l426 0c23 0 43 20 43 43l0 256c0 23-20 43-43 43z m26-299c0-13-13-26-26-26l-426 0c-13 0-26 13-26 26l0 256c0 13 13 26 26 26l426 0c13 0 26-13 26-26z m-65 212l-174-116-174 116c-4 3-10 1-12-2-3-4-2-10 2-12l179-120c2-1 3-1 5-1 2 0 3 0 5 1l179 120c4 2 5 8 2 12-2 3-8 5-12 2z m-281-111l-77-51c-4-3-5-8-2-12 1-3 4-4 7-4 1 0 3 1 5 2l76 51c4 2 5 8 3 12-3 4-8 5-12 2z m214 0c-4 3-9 2-12-2-2-4-1-10 3-12l76-51c2-1 4-2 5-2 3 0 6 1 7 4 3 4 2 9-2 12z"/>
<glyph unicode="&#57368;" d="M461 60c0 31-20 59-49 69l-105 39 0 48c32 25 54 67 54 116 0 76-53 137-117 137-64 0-116-61-116-137 0-52 24-97 60-120l0-44-105-39c-29-10-49-38-49-69l0-43 427 0z m-217 392c50 0 90-44 98-101-1 0-2 0-2 0-33-6-53 4-72 37l-7 14-8-14c-10-20-44-37-73-37-12 0-22 2-32 7 9 54 49 94 96 94z m-99-120c0 2 1 5 1 8 10-4 22-6 34-6 30 0 63 15 80 35 18-25 38-37 63-37 7 0 13 1 20 2 0 0 0 0 0 0 0-1 0-2 0-2 0-67-44-121-99-121-54 0-99 54-99 121z m299-298l-393 0 0 26c0 24 15 45 37 53l117 43 0 46c12-5 25-8 39-8 17 0 32 4 46 11l0-49 116-43c22-8 38-30 38-53z"/>
<glyph unicode="&#57369;" d="M9 0l494 0c5 0 9 4 9 9 0 1 0 46-22 91-16 30-66 48-135 74-10 3-20 7-31 11l0 55c7 8 25 30 26 65 5 4 9 11 11 21 4 15 2 32-9 42 1 2 2 5 3 7 8 20 23 59 17 88-7 34-56 49-101 49-33 0-74-8-86-31-12-1-22-7-29-15-18-25-4-69 3-92 0-2 1-4 1-5-11-10-13-28-9-43 2-10 6-17 11-21 1-34 18-54 26-61l0-59c-11-4-21-8-31-11-69-26-119-44-135-74-22-45-22-90-22-91 0-5 4-9 9-9z m29 92c12 24 62 43 125 66 12 4 24 8 36 13 4 1 6 5 6 8l0 68c0 3-1 6-3 7-1 0-24 19-24 57 0 4-3 8-7 8-2 3-6 13-5 24 1 5 2 11 8 14 3 2 4 5 4 8 0 2 0 5-3 13-5 18-18 60-5 77 4 6 11 9 21 9 4 0 8 3 9 6 3 14 34 25 71 25 38 0 80-12 84-35 5-25-9-60-16-79-4-10-5-13-5-16 0-3 1-6 4-8 6-3 7-9 8-14 1-11-3-21-5-24-4 0-7-4-7-8 0-38-24-61-24-61-2-2-3-4-3-6l0-65c0-3 2-7 6-8 12-5 24-9 36-13 63-23 113-42 125-66 15-30 19-60 20-75l-476 0c1 15 5 45 20 75z"/>
<glyph unicode="&#57370;" d="M435 341l-409 0c-5 0-9-3-9-8l0-324c0-5 4-9 9-9l409 0c5 0 9 4 9 9l0 324c0 5-4 8-9 8z m-8-324l-393 0 0 307 393 0z m-111 349c4 0 8 4 8 8l0 33c0 57-49 105-108 105-56 0-97-44-97-105l0-33c0-4 4-8 9-8 5 0 9 4 9 8l0 33c0 51 33 88 79 88 50 0 91-41 91-88l0-33c0-4 4-8 9-8z m139 125c-3 4-8 4-12 1l-82-76c-2-2-3-4-3-7l0-42c0-5 4-9 9-9l52 0c2 0 4 1 6 3l76 72c1 2 2 4 2 7 0 2 0 4-2 6z m-40-116l-40 0 0 31 74 67 34-33z"/>
<glyph unicode="&#57371;" d="M351 173c33 36 53 84 53 137 0 111-90 202-202 202-111 0-202-91-202-202 0-112 91-202 202-202 53 0 101 20 137 53l158-159c2-1 4-2 6-2 3 0 5 1 7 2 3 4 3 9 0 13z m-334 137c0 102 83 185 185 185 102 0 185-83 185-185 0-102-83-185-185-185-102 0-185 83-185 185z m222-30c24 15 40 45 40 79 0 50-35 91-78 91-42 0-77-41-77-91 0-29 12-55 30-71l0-35-73-31 6-15 84 35 0 34c9-5 19-8 30-8 7 0 14 1 21 3l0-29 90-36 6 15-79 32z m-38 153c28 0 52-23 59-55-18-4-29 2-40 21l-8 13-7-13c-5-11-25-21-42-21-6 0-13 1-19 3 7 30 30 52 57 52z m-60-74c0 2 0 3 0 5 7-2 15-3 22-3 18 0 37 8 49 19 11-14 23-20 39-20 3 0 7 0 11 1 0-1 0-1 0-2 0-41-27-74-61-74-33 0-60 33-60 74z"/>
<glyph unicode="&#57372;" d="M351 173c33 36 53 84 53 137 0 111-90 202-202 202-111 0-202-91-202-202 0-112 91-202 202-202 53 0 101 20 137 53l158-158c2-2 4-3 6-3 3 0 5 1 7 2 3 4 3 9 0 13z m-334 137c0 102 83 185 185 185 102 0 185-83 185-185 0-102-83-185-185-185-102 0-185 83-185 185z m239-91l0 32c7 6 18 20 19 53 9 5 14 18 14 30 0 7-1 13-4 18-2 2-4 5-6 6 4 11 12 30 7 51-7 28-44 38-73 38-27 0-59-8-70-31-10 1-17-2-22-7-10-13-1-36 6-51 0 0 0 0 0 0-3-1-5-3-7-6-3-5-5-11-5-18 0-12 5-25 14-31 2-33 16-47 25-52l0-32c-17-7-36-14-52-22l7-15c16 7 35 15 52 22l4 1c4 2 6 5 6 8l0 43c0 4-3 7-6 8-1 0-19 7-19 46 0 5-3 8-8 8-2 1-7 11-5 20 1 6 3 6 5 6 4 0 8 4 8 9 0 3-1 6-4 12-8 19-10 30-8 33 1 1 5 2 13 0 4-1 9 2 10 7 4 17 32 25 56 25 24 0 52-8 56-25 4-17-3-33-7-42-2-4-3-7-3-10 0-5 4-9 8-9 2 0 4 0 5-5 1-10-3-20-5-21-5 0-9-3-9-8 0-39-14-46-14-46-3-1-5-4-5-8l0-43c0-3 2-6 5-8 13-5 25-11 38-17 4-2 9-4 13-6l8 15c-5 2-9 4-13 6-11 6-22 11-34 16z"/>
<glyph unicode="&#57373;" d="M313 211c0 0-1 1-2 1 29 32 47 74 47 121 0 99-80 179-179 179-99 0-179-80-179-179 0-99 80-179 179-179 47 0 89 18 121 47 0-1 1-2 1-2l196-197c2-1 4-2 6-2 3 0 5 1 7 2 3 4 3 9 0 13z m-134-40c-89 0-162 72-162 162 0 89 73 162 162 162 90 0 162-73 162-162 0-90-72-162-162-162z"/>
<glyph unicode="&#57374;" d="M503 469c-4 0-8-4-8-9l0-15-478-145 0 10c0 5-4 8-8 8-5 0-9-3-9-8l0-108c0-4 4-8 9-8 4 0 8 4 8 8l0 10 85-26 0-49c0-59 47-86 89-86 49 0 81 33 82 83l222-67 0-15c0-5 4-9 8-9 5 0 9 4 9 9l0 408c0 5-4 9-9 9z m-247-332c0-43-24-69-65-69-35 0-72 22-72 69l0 44 137-42z m-239 93l0 52 478 145 0-342z"/>
<glyph unicode="&#57375;" d="M503 375l-494 0c-5 0-9-3-9-8 0-5 4-9 9-9l494 0c5 0 9 4 9 9 0 5-4 8-9 8z m0-221l-494 0c-5 0-9-4-9-9 0-5 4-8 9-8l494 0c5 0 9 3 9 8 0 5-4 9-9 9z m-401 59l0 61 53-66c2-2 5-3 7-3 1 0 2 0 3 0 3 1 6 5 6 8l0 86c0 4-4 8-9 8-5 0-8-4-8-8l0-61-53 66c-3 3-7 4-10 3-3-1-6-5-6-8l0-86c0-4 4-8 9-8 5 0 8 4 8 8z m154 77c5 0 9 4 9 9 0 4-4 8-9 8l-60 0c-4 0-8-4-8-8l0-86c0-4 4-8 8-8l60 0c5 0 9 4 9 8 0 5-4 9-9 9l-51 0 0 25 34 0c5 0 8 4 8 9 0 5-3 9-8 9l-34 0 0 25z m64-86c3 0 7 2 8 6l24 64 24-64c2-4 5-6 8-6 4 0 7 2 8 6l33 86c1 4-1 9-5 11-5 1-10-1-11-5l-25-65-24 65c-1 3-4 5-8 5-3 0-7-2-8-5l-24-65-24 65c-2 4-7 6-11 5-5-2-7-7-5-11l32-86c1-4 4-6 8-6z"/>
<glyph unicode="&#57377;" d="M9 256l230 0 0-239c0-5 4-8 8-8 5 0 9 3 9 8l0 239 226 0c5 0 8 4 8 9 0 4-3 8-8 8l-226 0 0 217c0 5-4 9-9 9-4 0-8-4-8-9l0-217-230 0c-5 0-9-4-9-8 0-5 4-9 9-9z"/>
<glyph unicode="&#57378;" d="M358 338l-156-145-48 48c-3 3-8 3-12 0-3-4-3-9 0-13l54-53c2-2 4-3 6-3 2 0 4 1 6 2l161 151c4 3 4 9 1 12-3 4-9 4-12 1z m154-82c0 19-11 37-27 45 11 15 15 35 8 53-8 18-24 30-43 32 5 17 1 37-13 51-10 10-23 15-36 15-6 0-11-1-16-2-1 18-13 35-31 42-18 8-38 4-53-7-8 16-26 27-45 27-19 0-37-11-46-27-14 11-34 15-52 7-18-7-30-24-32-42-4 1-10 2-15 2-13 0-26-5-36-15-14-14-18-34-13-52-19-1-35-13-43-31-7-18-4-38 8-53-16-8-27-26-27-45 0-19 11-37 27-45-12-15-15-35-8-53 8-18 24-30 43-32-5-17-1-37 13-51 10-10 23-15 36-15 6 0 11 1 15 2 2-18 14-35 32-43 18-7 38-3 52 8 9-16 27-27 46-27 19 0 37 11 45 27 15-11 35-15 53-8 18 8 30 25 31 43 5-1 10-2 16-2 13 0 26 5 36 15 14 14 18 34 13 51 19 2 35 14 43 32 7 18 4 38-8 53 16 8 27 26 27 45z m-45-34c-4 0-6-3-7-7-1-3 1-6 4-8 14-9 19-27 13-42-6-13-18-22-32-22-3 0-5 1-7 1-4 1-7-1-9-4-2-2-2-6 0-9 9-14 8-32-4-44-12-11-31-13-44-4-3 2-7 2-9 0-3-2-5-5-4-9 3-16-5-32-21-39-15-6-33 0-42 13-2 3-5 5-8 4-4-1-7-3-7-7-3-16-17-28-34-28-17 0-31 12-34 28-1 4-3 6-7 7 0 0-1 0-1 0-3 0-6-1-7-4-9-13-27-19-42-13-16 7-24 23-21 39 1 4-1 7-4 9-2 2-6 2-9 0-13-9-33-7-44 4-12 12-13 30-4 44 2 3 2 7 0 9-2 3-5 5-9 4-2 0-5-1-7-1-14 0-26 9-32 22-6 15-1 33 13 42 3 2 5 5 4 8-1 4-3 7-7 7-16 3-28 17-28 34 0 17 12 31 28 34 4 0 6 3 7 7 1 3-1 6-4 8-14 9-19 27-13 42 6 13 18 22 32 22 2 0 5-1 7-1 4-1 7 1 9 4 2 2 2 6 0 9-9 14-8 32 4 44 11 11 31 13 44 4 3-2 7-2 9 0 3 2 5 5 4 9-3 16 5 32 21 39 15 6 33 0 42-13 1-3 5-5 8-4 4 1 6 3 7 7 3 16 17 28 34 28 17 0 31-12 34-28 0-4 3-6 7-7 3-1 6 1 8 4 9 13 27 19 42 13 16-7 24-23 21-39-1-4 1-7 4-9 2-2 6-2 9 0 13 9 32 7 44-4 12-12 13-30 4-44-2-3-2-7 0-9 2-3 5-5 9-4 2 0 5 1 7 1 14 0 26-9 32-22 6-15 1-33-13-42-3-2-5-5-4-8 1-4 3-7 7-7 16-3 28-17 28-34 0-17-12-31-28-34z"/>
<glyph unicode="&#57379;" d="M512 256c0 19-11 37-27 45 11 15 15 35 8 53-8 18-24 30-43 32 5 17 1 37-13 51-10 10-23 15-36 15-6 0-11-1-16-2-1 18-13 35-31 42-18 8-38 4-53-7-8 16-26 27-45 27-19 0-37-11-45-27-15 11-35 15-53 7-18-7-30-24-32-42-4 1-9 2-15 2-13 0-26-5-36-15-14-14-18-34-13-52-19-1-35-13-42-31-8-18-5-38 7-53-16-8-27-26-27-45 0-19 11-37 27-45-12-15-15-35-8-53 8-18 24-30 43-32-5-17-1-37 13-51 10-10 23-15 36-15 6 0 11 1 15 2 2-18 14-35 32-43 18-7 38-3 53 8 8-16 26-27 45-27 19 0 37 11 45 27 15-11 35-15 53-8 18 8 30 25 31 43 5-1 10-2 16-2 13 0 26 5 36 15 14 14 18 34 13 51 19 2 35 14 43 32 7 18 4 38-8 53 16 8 27 26 27 45z m-45-34c-4 0-6-3-7-7-1-3 1-6 4-8 14-9 19-27 13-42-6-13-18-22-32-22-3 0-5 1-7 1-4 1-7-1-9-4-2-2-2-6 0-9 9-14 8-32-4-44-12-11-31-13-44-4-3 2-7 2-9 0-3-2-5-5-4-9 3-16-5-32-21-39-15-6-33 0-42 13-2 3-5 5-8 4-4-1-7-3-7-7-3-16-17-28-34-28-17 0-31 12-34 28-1 4-3 6-7 7 0 0-1 0-1 0-3 0-6-1-7-4-9-13-27-19-42-13-16 7-24 23-21 39 1 4-1 7-4 9-2 2-6 2-9 0-13-9-33-7-44 4-12 12-13 30-4 44 2 3 2 7 0 9-2 3-5 5-9 4-2 0-5-1-7-1-14 0-26 9-32 22-6 15-1 33 13 42 3 2 5 5 4 8-1 4-3 7-7 7-16 3-28 17-28 34 0 17 12 31 28 34 4 0 6 3 7 7 1 3-1 6-4 8-14 9-19 27-13 42 6 13 18 22 32 22 2 0 5-1 7-1 4-1 7 1 9 4 2 2 2 6 0 9-9 14-8 32 4 44 11 11 31 13 44 4 3-2 7-2 9 0 3 2 5 5 4 9-3 16 5 32 21 39 15 6 33 0 42-13 1-3 5-5 8-4 4 1 6 3 7 7 3 16 17 28 34 28 17 0 31-12 34-28 0-4 3-6 7-7 3-1 6 1 8 4 9 13 27 19 42 13 16-7 24-23 21-39-1-4 1-7 4-9 2-2 6-2 9 0 13 9 32 7 44-4 12-12 13-30 4-44-2-3-2-7 0-9 2-3 5-5 9-4 2 0 5 1 7 1 14 0 26-9 32-22 6-15 1-33-13-42-3-2-5-5-4-8 1-4 3-7 7-7 16-3 28-17 28-34 0-17-12-31-28-34z m-108 137c-3 3-9 3-12 0l-91-91-91 91c-3 3-9 3-12 0-3-3-3-9 0-12l91-91-91-91c-3-3-3-9 0-12 2-2 4-2 6-2 2 0 5 0 6 2l91 91 91-91c1-2 4-2 6-2 2 0 4 0 6 2 3 3 3 9 0 12l-91 91 91 91c3 3 3 9 0 12z"/>
<glyph unicode="&#57380;" d="M503 307l-67 0c-1 4-3 10-4 14-3 10-6 20-10 29l45 45c2 1 3 3 3 6 0 2-1 4-3 6l-60 60c-4 4-9 4-12 0l-45-44c-10 5-22 9-32 12-4 2-8 3-11 4l0 64c0 5-4 9-8 9l-86 0c-4 0-8-4-8-9l0-64c-3-1-7-2-11-4-10-3-22-7-32-12l-45 44c-3 4-8 4-12 0l-60-60c-4-4-4-9 0-12l44-45c-5-10-9-22-12-32-2-4-3-8-4-11l-64 0c-5 0-9-4-9-8l0-69c0-4 4-8 9-8l62 0c4-17 10-42 18-60l-44-45c-2-1-3-3-3-6 0-2 1-4 3-6l60-60c4-4 9-4 12 0l45 44c10-5 22-9 32-12 4-2 8-3 11-4l0-64c0-5 4-9 8-9l86 0c4 0 8 4 8 9l0 64c3 1 7 2 11 4 10 3 22 7 32 12l45-44c3-4 8-4 12 0l60 60c4 4 4 9 0 12l-44 45c8 13 14 26 18 60l62 0c5 0 9 4 9 8l0 69c0 4-4 8-9 8z m-8-68l-61 0c-5 0-8-3-9-8-4-39-11-50-20-65l0-1c-2-3-2-7 1-10l43-44-48-48-44 43c-3 3-7 3-10 1-9-5-23-10-35-14-7-3-14-5-17-7-3-2-5-4-5-8l0-61-68 0 0 61c0 4-2 6-5 8-3 2-10 4-17 7-12 4-26 9-35 14-3 2-7 2-10-1l-44-43-48 48 43 44c3 3 3 7 1 10-7 13-15 37-20 67-1 4-4 7-9 7l-61 0 0 51 61 0c3 0 6 2 8 5 2 3 4 10 7 17 4 12 9 26 14 35 2 3 2 7-1 10l-43 44 48 48 44-43c3-3 7-3 10-1 9 5 23 10 35 14 7 3 14 5 17 7 3 2 5 4 5 8l0 61 68 0 0-61c0-4 2-6 5-8 3-2 10-4 17-7 12-4 26-9 35-14 3-2 7-2 10 1l44 43 48-48-43-44c-3-3-3-7-1-10 4-7 8-20 11-31 5-19 8-27 16-27l0 0c2 0 3 0 5 1l58 0z m-239 119c-56 0-102-46-102-102 0-56 46-102 102-102 56 0 102 46 102 102 0 56-46 102-102 102z m0-187c-47 0-85 38-85 85 0 47 38 85 85 85 47 0 85-38 85-85 0-47-38-85-85-85z"/>
<glyph unicode="&#57381;" d="M485 301c12 15 15 35 8 53-8 18-24 30-43 32 5 17 1 37-13 51-10 10-23 15-36 15-6 0-11-1-15-2-2 18-14 35-32 43-18 7-38 3-53-8-8 16-26 27-45 27-19 0-37-11-45-27-15 11-35 15-53 7-18-7-30-24-32-42-4 1-9 2-15 2-13 0-26-5-36-15-14-14-18-34-13-52-19-1-35-13-43-31-7-18-4-38 8-53-16-8-27-26-27-45 0-19 11-37 27-45-12-15-15-35-8-53 8-18 24-30 43-32-5-17-1-37 13-51 10-10 23-15 36-15 6 0 11 1 15 2 2-18 14-35 32-43 18-7 38-3 53 8 8-16 26-27 45-27 19 0 37 11 45 27 15-11 35-15 53-8 18 8 30 25 32 43 4-1 9-2 15-2 13 0 26 5 36 15 14 14 18 34 13 51 19 2 35 14 43 32 7 18 4 38-8 53 16 8 27 26 27 45 0 19-11 37-27 45z m-18-79c-4 0-6-3-7-7-1-3 1-6 4-8 14-9 19-27 13-42-7-16-23-24-39-21-4 1-7-1-9-4-2-2-2-6 0-9 9-14 8-32-4-44-12-11-31-13-44-4-3 2-7 2-9 0-3-2-5-5-4-9 3-16-5-32-21-39-15-6-33 0-42 13-2 3-5 5-8 4-4-1-7-3-7-7-3-16-17-28-34-28-17 0-31 12-34 28 0 4-3 6-7 7 0 0-1 0-1 0-3 0-6-1-7-4-9-13-27-19-42-13-16 7-24 23-21 39 1 4-1 7-4 9-2 2-6 2-9 0-13-9-32-7-44 4-12 12-13 30-4 44 2 3 2 7 0 9-2 3-5 5-9 4-2 0-5-1-7-1-14 0-26 9-32 22-6 15-1 33 13 42 3 2 5 5 4 8-1 4-3 7-7 7-16 3-28 17-28 34 0 17 12 31 28 34 4 0 6 3 7 7 1 3-1 6-4 8-14 9-19 27-13 42 6 13 18 22 32 22 2 0 5-1 7-1 4-1 7 1 9 4 2 2 2 6 0 9-9 14-8 32 4 44 12 11 31 13 44 4 3-2 7-2 9 0 3 2 5 5 4 9-3 16 5 32 21 39 15 6 33 0 42-13 2-3 5-5 8-4 4 1 7 3 7 7 3 16 17 28 34 28 17 0 31-12 34-28 0-4 3-6 7-7 3-1 6 1 8 4 9 13 27 19 42 13 16-7 24-23 21-39-1-4 1-7 4-9 2-2 6-2 9 0 13 9 33 7 44-4 12-12 13-30 4-44-2-3-2-7 0-9 2-3 5-5 9-4 16 3 33-5 39-21 6-15 1-33-13-42-3-2-5-5-4-8 1-4 3-7 7-7 16-3 28-17 28-34 0-17-12-31-28-34z m-169 85c0-5 4-8 9-8 5 0 8 3 8 8 0 30-22 55-51 59l0 27c0 4-4 8-8 8-5 0-9-4-9-8l0-27c-29-4-51-29-51-59 0-30 22-55 51-59l0-85c-19 4-34 21-34 42 0 5-4 8-9 8-4 0-8-3-8-8 0-30 22-55 51-59l0-27c0-4 4-8 9-8 4 0 8 4 8 8l0 27c29 4 51 29 51 59 0 30-22 55-51 59l0 85c20-4 34-21 34-42z m-85 0c0 21 15 38 34 42l0-84c-19 4-34 22-34 42z m85-102c0-21-14-38-34-42l0 84c20-4 34-22 34-42z"/>
<glyph unicode="&#57382;" d="M248 341c36 3 75-9 105-32 2-1 4-2 5-2 3 0 6 1 7 4 3 3 2 9-1 12-34 25-77 38-117 35-5 0-8-4-8-9 0-4 4-8 9-8z m-239-187l54 0c21-43 58-74 108-90l0-55c0-5 3-9 8-9 5 0 9 4 9 9l0 50c21-5 44-8 68-8 24 0 47 4 68 10l0-52c0-5 4-9 9-9 5 0 8 4 8 9l0 57c72 27 124 87 128 157 25 3 43 24 43 50 0 5-4 9-9 9-4 0-8-4-8-9 0-16-11-30-26-33-6 94-99 170-213 170-17 0-33-1-49-4-15 24-41 38-69 38-15 0-29-4-42-12-3-1-5-4-5-7 0-3 2-6 5-7 16-10 27-25 31-43-43-29-74-72-83-119l-35 0c-5 0-9-4-9-9l0-85c0-5 4-8 9-8z m8 85l34 0c4 0 8 3 9 7 6 47 37 90 81 117 3 2 5 5 4 9-3 20-13 38-28 51 7 3 14 4 21 4 24 0 46-13 58-34 2-4 5-5 9-4 16 3 33 4 51 4 108 0 196-73 196-162 0-90-88-163-196-163-87 0-152 36-180 98-1 3-4 5-8 5l-51 0z m120 0c14 0 25 11 25 26 0 14-11 25-25 25-15 0-26-11-26-25 0-15 11-26 26-26z m0 34c4 0 8-4 8-8 0-5-4-9-8-9-5 0-9 4-9 9 0 4 4 8 9 8z"/>
<glyph unicode="&#57384;" d="M9 34l85 0c5 0 8 4 8 9l0 6c21-7 40-13 56-19 55-19 85-30 114-30 36 0 69 17 140 55 26 13 57 29 95 48 3 2 4 4 5 7 0 2-1 5-2 7-20 19-42 36-73 27l-79-26c0 0 0 1 0 2 0 17-11 34-34 34-15 0-24 0-32 0-10 0-18 0-33 0-29 22-62 34-97 34l-60 0 0 8c0 5-3 9-8 9l-85 0c-5 0-9-4-9-9l0-153c0-5 4-9 9-9z m153 137c32 0 62-11 89-33 1-1 3-1 5-1 17-1 25 0 37 0 7 0 16 0 31 0 13 0 17-10 17-17 0-8-4-18-17-18l-119 0c-5 0-9-3-9-8 0-5 4-9 9-9l119 0c12 0 21 5 27 12l91 31c16 4 29 1 47-15-34-17-62-31-85-43-123-65-123-65-240-24-18 6-38 13-62 21l0 104z m-145 17l68 0 0-137-68 0z m248 111c-5 0-9-4-9-9l0-51c0-5 4-9 9-9 4 0 8 4 8 9l0 51c0 5-4 9-8 9z m110 94l0 51c0 4-3 8-8 8-5 0-9-4-9-8l0-51c0-5 4-9 9-9 5 0 8 4 8 9z m-110-60c-38 0-69-31-69-68 0-38 31-69 69-69 37 0 68 31 68 69 0 37-31 68-68 68z m0-120c-29 0-52 23-52 52 0 28 23 51 52 51 28 0 51-23 51-51 0-29-23-52-51-52z m170 205c0 38-30 68-68 68-38 0-68-30-68-68 0-38 30-68 68-68 38 0 68 30 68 68z m-119 0c0 28 23 51 51 51 28 0 51-23 51-51 0-28-23-51-51-51-28 0-51 23-51 51z"/>
<glyph unicode="&#57385;" d="M512 401c0 1 0 2-1 3 0 0 0 0 0 1 0 0-1 1-1 2 0 0 0 0-1 0 0 1 0 1-1 1 0 0-1 1-1 1 0 0 0 0 0 0l-239 102c-2 1-5 1-7 0l-256-102c0 0 0 0 0 0 0 0-1-1-1-1-1 0-1 0-1-1 0 0 0 0-1 0 0-1-1-1-1-2 0-1 0-1 0-1-1-1-1-2-1-3 0 0 0 0 0 0 0 0 0 0 0 0l0-273c0-3 2-6 5-8l256-119c0 0 0 0 0 0 1-1 2-1 4-1 1 0 2 0 3 1 0 0 0 0 0 0l239 119c3 2 5 5 5 8l0 273c0 0 0 0 0 0z m-248 93l219-93-95-44-216 100z m0-195l-233 102 120 48 217-101z m-247 89l239-103 0-263-239 111z m478-255l-222-111 0 263 222 103z m-295 122l-120 52c-2 1-6 0-8-1-2-2-4-4-4-7l0-111c0-4 2-7 5-8l120-51c1-1 2-1 3-1 2 0 4 0 5 1 2 2 4 5 4 8l0 110c0 4-2 7-5 8z m-12-106l-103 44 0 93 103-44z"/>
<glyph unicode="&#57386;" d="M421 511c-3 1-6 1-9-2l-36-36-37 37c-4 3-9 3-12 0l-37-37-36 37c-4 3-9 3-13 0l-36-37-37 37c-3 3-9 3-12 0l-37-37-36 36c-3 3-6 3-10 2-3-1-5-4-5-8l0-495c0-3 2-6 6-8 3-1 6 0 9 2l37 37 37-37c1-1 4-3 6-2 2 0 4 1 6 2l36 37 36-36c4-3 9-3 13 0l36 36 37-36c3-3 8-3 12 0l36 36 37-37c2-1 4-2 6-2 1 0 2 0 3 0 4 2 6 5 6 8l0 495c0 4-2 7-6 8z m-11-482l-28 29c-2 1-4 2-6 2-3 0-5-1-7-2l-36-37-37 37c-3 3-9 3-12 0l-37-37-36 37c-2 1-4 2-6 2-3 0-5-1-6-3l-36-37-37 38c-2 1-4 2-7 2 0 0 0 0 0 0-2 0-4-1-6-2l-28-29 0 454 28-28c4-3 9-3 13 0l36 37 37-37c3-3 8-3 12 0l36 37 37-37c3-3 9-3 12 0l37 37 36-37c4-3 9-3 12 0l29 28z m-88 355c0 5-4 9-8 9l-173 0c-4 0-8-4-8-9 0-4 4-8 8-8l173 0c4 0 8 4 8 8z m-95-59l-86 0c-4 0-8-4-8-9 0-5 4-8 8-8l86 0c5 0 9 3 9 8 0 5-4 9-9 9z m0-69l-86 0c-4 0-8-3-8-8 0-5 4-9 8-9l86 0c5 0 9 4 9 9 0 5-4 8-9 8z m-21-68l-65 0c-4 0-8-4-8-8 0-5 4-9 8-9l65 0c5 0 8 4 8 9 0 4-3 8-8 8z m118 70c13 0 24-11 24-24 0-5 4-8 9-8 4 0 8 3 8 8 0 20-14 36-32 40l0 16c0 5-4 9-9 9-4 0-8-4-8-9l0-16c-19-4-33-20-33-40 0-22 19-41 41-41 13 0 24-10 24-23 0-14-11-24-24-24-13 0-23 10-23 24 0 4-4 8-9 8-5 0-9-4-9-8 0-20 14-36 33-40l0-19c0-4 4-8 8-8 5 0 9 4 9 8l0 19c18 4 32 20 32 40 0 22-18 40-41 40-13 0-23 11-23 24 0 13 10 24 23 24z"/>
<glyph unicode="&#57387;" d="M484 152c0 0-1 0-1 1l-218 117c0 17 3 20 3 21 3 1 5 2 7 3 20 10 41 20 41 56 0 33-27 60-60 60-33 0-60-27-60-60 0-5 4-9 9-9 5 0 8 4 8 9 0 23 19 43 43 43 24 0 43-20 43-43 0-25-12-31-31-40-3-1-5-3-7-4-11-5-13-20-13-36l-219-117c0-1-1-1-1-1-10-7-13-19-9-31 3-11 12-19 22-19l430 0c10 0 19 8 23 19 3 12 0 24-10 31z m-7-26c0-2-2-7-6-7l-430 0c-4 0-6 5-6 7-1 4-1 9 2 12l219 117 219-117c3-3 4-8 2-12z"/>
<glyph unicode="&#57388;" d="M88 284c3-3 9-3 12 0l37 37 0-261c0-5 3-9 8-9l239 0c5 0 9 4 9 9l0 261 36-37c4-3 9-3 12 0l69 68c1 2 2 4 2 7 0 2-1 5-3 6l-86 67c-23 18-52 29-81 29-1 0-1 0-1 0 0 0 0 0 0 0 0 0 0 0 0 0l-153 0c-29 0-59-10-82-29l-86-67c-2-1-3-4-3-6 0-3 1-5 3-7z m244 160c-4-29-29-51-59-51-30 0-55 22-59 51z m-216-25c21 16 46 25 72 25l9 0c4-39 37-69 76-69 39 0 72 30 76 68 23-1 46-10 64-24l78-61-56-56-45 45c-2 3-6 4-9 2-3-1-6-4-6-8l0-273-221 0 0 273c0 4-2 7-6 8-3 2-7 1-9-2l-45-45-56 56z"/>
<glyph unicode="&#57389;" d="M494 503c-9-1-92-12-116-36l-134-134c-20-1-80-4-102-12-17-6-38-23-49-33-29-30-73-77-74-77-2-3-3-7-1-10 2-3 4-5 8-5 0 0 0 0 1 0l94 14c-2-3-2-8 1-11l77-77c1-2 4-3 6-3 2 0 3 1 5 2l-14-94c0-4 2-7 5-9 1-1 2-1 4-1 2 0 4 1 6 2 0 1 47 45 77 74 10 10 27 32 32 49 8 24 12 83 13 102 58 58 119 119 134 134 24 24 35 107 36 116 1 2 0 5-2 7-2 2-5 3-7 2z m-389-227c11 11 30 25 42 29 15 5 53 8 79 10l-85-85-93-13c16 16 39 41 57 59z m35-71l22 22 65-65c-10-9-17-17-22-22z m164-57c-4-13-18-32-28-43-18-18-43-41-59-57l13 93c4 4 9 9 15 15 0 0 0 0 0 0 0 0 0 0 0 0 19 19 44 44 70 70-2-26-6-63-11-78z m151 242c-23-22-150-150-216-216l-65 65 79 79c1 0 1 0 1 0l136 137c15 15 66 25 95 30-5-29-15-80-30-95z m-301-254c-3-4-3-9 0-12 5-5 7-12 6-19-1-7-6-15-13-22-14-14-78-39-116-52 13 38 38 102 52 116 11 11 28 20 41 7 3-3 8-3 12 0 3 3 3 9 0 12-17 17-44 14-66-7-21-22-57-127-61-139-1-3 0-7 2-9 2-2 4-2 6-2 1 0 2 0 3 0 12 4 117 40 139 61 9 10 16 21 18 32 2 13-2 25-11 34-3 3-9 3-12 0z"/>
<glyph unicode="&#57390;" d="M198 207c2-2 4-3 6-3 2 0 4 1 6 3l161 150c4 4 4 9 1 12-4 4-9 4-12 1l-156-145-48 48c-3 3-8 3-12 0-3-4-3-9 0-12z m254 305l-409 0c-5 0-9-4-9-9l0-156c0-146 80-278 209-346 1-1 3-1 4-1 1 0 3 0 4 1 129 68 209 200 209 346l0 156c0 5-4 9-8 9z m-9-165c0-138-75-263-196-329-121 66-196 191-196 329l0 148 392 0z"/>
<glyph unicode="&#57391;" d="M506 85c-43 11-62 27-62 52l0 119c0 80-46 149-117 178-7 33-36 56-71 56-34 0-64-24-71-56-71-29-117-98-117-178l0-119c0-25-19-41-62-52-4-1-6-5-6-9 1-5 4-8 9-8l179 0c4-39 32-68 68-68 36 0 64 29 68 68l179 0c5 0 8 3 9 8 0 4-2 8-6 9z m-250-68c-29 0-47 25-51 51l102 0c-4-26-22-51-51-51z m-202 68c17 11 31 27 31 52l0 119c0 74 43 138 110 163 3 1 5 4 6 7 4 27 28 47 55 47 28 0 51-20 55-47 1-3 3-6 6-7 67-25 110-89 110-163l0-119c0-25 14-41 31-52z"/>
<glyph unicode="&#57392;" d="M384 77c0 23-19 42-43 42-23 0-42-19-42-42 0-24 19-43 42-43 24 0 43 19 43 43z m-68 0c0 14 11 25 25 25 14 0 26-11 26-25 0-14-12-26-26-26-14 0-25 12-25 26z m-222-43c23 0 43 19 43 43 0 23-20 42-43 42-24 0-43-19-43-42 0-24 19-43 43-43z m0 68c14 0 25-11 25-25 0-14-11-26-25-26-14 0-26 12-26 26 0 14 12 25 26 25z m409 376l-32 0c-4 0-8-3-8-8l-42-316-412 0c-5 0-9-4-9-9 0-5 4-8 9-8l419 0c4 0 8 3 9 7l42 317 24 0c5 0 9 4 9 8 0 5-4 9-9 9z m-477-290l341 0c5 0 8 4 8 8l0 239c0 5-3 9-8 9l-137 0c-4 0-8-4-8-9l0-145-34 0 0 60c0 5-4 8-9 8l-119 0c-5 0-9-3-9-8l0-60-25 0c-5 0-9-4-9-8l0-86c0-4 4-8 9-8z m213 239l119 0 0-222-119 0z m-171-86l103 0 0-51-103 0z m-34-68l188 0 0-68-188 0z"/>
<glyph unicode="&#57393;" d="M513 482c0 0 0 1 0 1 0 1 0 1 0 2 0 0-1 1-1 1 0 0 0 1 0 1 0 0 0 0-1 0 0 1 0 1-1 1 0 1 0 1-1 1 0 0 0 0 0 1 0 0-1 0-1 0 0 0-1 0-1 0-1 0-1 1-2 1 0 0-1 0-1 0-1 0-1-1-2-1 0 0 0 0-1 0l-497-205c-3-1-5-4-5-8 0-3 2-6 5-8l185-74 0-165c0-4 2-7 6-8 1-1 2-1 2-1 3 0 6 2 8 4l73 123 134-72c1-1 3-1 4-1 1 0 3 0 4 1 2 1 4 3 5 6l88 398c0 0 0 1 0 1 0 0 0 0 0 1z m-50-26l-194-178-73-68-166 67z m-257-395l0 125 57-30z m204 35l-198 106 250 230 28 26z"/>
<glyph unicode="&#57394;" d="M9 16l324 0c5 0 8 4 8 9l0 94c0 5 0 13-44 37-22 13-50 26-75 37l0 32c7 5 20 19 21 52 9 5 14 18 14 31 0 7-2 13-4 17-2 3-4 5-7 6 5 12 13 30 8 51-8 29-44 39-73 39-27 0-59-9-70-32-14 1-20-4-23-9-9-13 0-34 6-48 0 0 0 0 0 0-2-2-5-4-6-7-3-5-5-11-5-18 0-12 5-25 14-30 1-33 15-47 22-52l0-32c-25-11-53-24-75-37-44-24-44-32-44-37l0-94c0-5 4-9 9-9z m8 101c7 10 59 40 114 62 3 1 6 5 6 8l0 43c0 3-3 6-6 8 0 0-17 7-17 45 0 2-1 5-2 6-2 2-4 3-6 3-3 1-7 10-6 20 2 6 4 6 5 6 5 0 9 3 9 8 0 3-1 6-4 12-3 7-12 28-8 33 1 1 4 1 5 1 2 0 5 0 7 0 5-1 9 1 10 6 5 18 33 26 57 26 24 0 52-8 56-26 4-16-3-32-7-42-2-4-3-7-3-10 0-5 3-8 8-8 1 0 3 0 4-6 2-9-2-19-5-20-4 0-8-4-8-9 0-38-15-45-15-45-4-1-6-5-6-8l0-43c0-3 2-7 5-8 56-22 108-52 114-62l0-84-307 0z m367-84c-5 0-9-3-9-8 0-5 4-9 9-9l119 0c5 0 9 4 9 9l0 97c0 12-16 18-57 30-14 5-31 10-45 15l0 23c9 5 25 17 26 44 8 6 11 18 11 30 0 10-2 18-7 23 5 9 13 25 7 42-7 22-38 30-62 30-21 0-48-6-59-24-8 1-14-1-18-6-9-11-3-29 2-41-2-2-4-4-5-7-3-5-4-12-4-17 0-12 4-24 11-30 2-25 18-39 29-44l0-20c0-5 4-9 9-9 5 0 8 4 8 9l0 26c0 3-2 7-6 8 0 0-23 6-23 36 0 4-3 8-7 9-2 2-4 9-4 17 0 6 2 8 3 9 4 0 8 3 8 8 0 3-1 5-3 10-7 19-6 24-5 25 0 0 3 1 9 0 4-1 8 1 9 5 4 11 23 19 46 19 23 0 42-8 46-19 4-11-3-23-8-30-2-4-3-7-3-10 0-5 3-8 8-8 1-1 2-4 2-9 1-9-2-15-3-17-4-1-7-5-7-9 0-30-20-36-21-36-4-1-6-5-6-8l0-35c0-3 2-6 5-8 16-6 35-12 52-17 17-5 39-12 45-16l0-87-111 0z"/>
<glyph unicode="&#57395;" d="M340 335l18-18-134-135c-2-2-6-4-9-4-3 0-7 2-9 4l-56 56 18 18 47-47z m-84 129c115 0 208-93 208-208 0-115-93-208-208-208-115 0-208 93-208 208 0 115 93 208 208 208z m0-399c105 0 191 86 191 191 0 105-86 191-191 191-105 0-191-86-191-191 0-105 86-191 191-191z"/>
<glyph unicode="&#57396;" d="M398 365c32-35 50-80 50-128 0-104-86-189-192-189-106 0-192 85-192 189 0 48 18 94 51 129l1 1-18 0-8-8-23 23 41 40 23-22-9-9 0-18c31 30 72 50 116 53l2 0 0 38 32 0 0-38c43-4 82-21 113-49l5-5 0 19-9 9 23 22 41-40-22-23-9 8-18 0z m-142-299c96 0 173 77 173 171 0 94-77 171-173 171-95 0-173-77-173-171 0-94 77-171 173-171z m8 189c14-4 24-17 24-31 0-15-10-26-24-30l-8-18-8 18c-14 4-24 15-24 30 0 14 12 27 24 31l0 129 16 0z"/>
<glyph unicode="&#57397;" d="M227 182c-2-2-6-4-9-4-3 0-7 2-9 4l-56 56 18 18 47-47 125 126 17-18z"/>
<glyph unicode="&#57398;" d="M383 508c-2 2-4 4-8 4l-179 0c-4 0-7-3-8-7l-60-256c0-2 0-5 2-7 1-2 4-3 7-3l74 0-66-228c-1-4 1-8 5-10 1-1 2-1 4-1 2 0 5 1 7 4l222 324c1 3 1 6 0 9-1 3-4 4-8 4l-95 0 103 158c1 2 1 6 0 9z m-126-171c-1-2-1-6 0-8 2-3 4-5 8-5l94 0-183-267 54 188c1 3 0 5-1 8-2 2-4 3-7 3l-75 0 56 239 157 0z"/>
<glyph unicode="&#57399;" d="M503 336l-181 0-58 170c-1 4-4 6-8 6-4 0-7-2-8-6l-58-170-181 0c-4 0-7-3-8-6-2-3-1-7 2-9l146-122-63-188c-1-3 0-7 3-9 3-3 7-3 10 0l157 115 157-115c2-1 3-2 5-2 2 0 4 1 5 2 3 2 4 6 3 9l-63 194 146 115c3 3 4 7 3 10-2 3-5 6-9 6z m-155-122c-3-2-4-6-3-9l57-174-141 104c-1 1-3 2-5 2-2 0-4-1-5-2l-140-104 56 168c1 4 0 8-2 10l-133 110 164 0c4 0 7 2 8 5l52 153 52-153c1-3 4-5 8-5l163 0z"/>
<glyph unicode="&#57400;" d="M469 358l-426 0c-24 0-43-19-43-42l0-154c0-23 19-43 43-43l59 0 0-93c0-5 4-9 9-9l290 0c5 0 9 4 9 9l0 93 59 0c24 0 43 20 43 43l0 154c0 23-19 42-43 42z m-76-324l-274 0 0 154 274 0z m102 128c0-14-12-25-26-25l-59 0 0 59c0 5-4 9-9 9l-290 0c-5 0-9-4-9-9l0-59-59 0c-14 0-26 11-26 25l0 154c0 14 12 25 26 25l426 0c14 0 26-11 26-25z m-94 213c5 0 9 4 9 9l0 34c0 1-1 2-1 3 0 1-1 2-2 3l-68 68c-1 1-2 2-3 2-1 1-2 1-3 1l-222 0c-5 0-9-4-9-9l0-102c0-5 4-9 9-9 5 0 8 4 8 9l0 94 205 0 0-60c0-5 4-8 9-8l60 0 0-26c0-5 3-9 8-9z m-60 91l39-39-39 0z m9-312l-188 0c-5 0-8-4-8-9 0-5 3-8 8-8l188 0c5 0 8 3 8 8 0 5-3 9-8 9z m0-35l-188 0c-5 0-8-3-8-8 0-5 3-9 8-9l188 0c5 0 8 4 8 9 0 5-3 8-8 8z m0-34l-188 0c-5 0-8-3-8-8 0-5 3-9 8-9l188 0c5 0 8 4 8 9 0 5-3 8-8 8z m-282 239c-19 0-34-15-34-34 0-19 15-34 34-34 19 0 34 15 34 34 0 19-15 34-34 34z m0-51c-9 0-17 8-17 17 0 10 8 17 17 17 10 0 17-7 17-17 0-9-7-17-17-17z"/>
<glyph unicode="&#57401;" d="M256 464c115 0 208-93 208-208 0-115-93-208-208-208-115 0-208 93-208 208 0 115 93 208 208 208z m0-399c105 0 191 86 191 191 0 105-86 191-191 191-105 0-191-86-191-191 0-105 86-191 191-191z m0 351c88 0 160-72 160-160 0-88-72-160-160-160-88 0-160 72-160 160 0 88 72 160 160 160z"/>
<glyph unicode="&#57402;" d="M256 464c115 0 208-93 208-208 0-115-93-208-208-208-115 0-208 93-208 208 0 115 93 208 208 208z m0-399c105 0 191 86 191 191 0 105-86 191-191 191-105 0-191-86-191-191 0-105 86-191 191-191z"/>
<glyph unicode="&#57403;" d="M99 327c-2 2-3 6-3 9 0 9 8 16 17 16l286 0c9 0 17-7 17-16 0-3-1-6-3-8l-2-3-136-156c-5-5-11-9-19-9-8 0-14 4-19 9l-136 156z"/>
<glyph unicode="&#57404;" d="M171 363c-6 0-11-5-11-11l0-267c0-6 5-10 11-10 6 0 10 4 10 10l0 267c0 6-4 11-10 11z m85 0c-6 0-11-5-11-11l0-267c0-6 5-10 11-10 6 0 11 4 11 10l0 267c0 6-5 11-11 11z m85 0c-6 0-10-5-10-11l0-267c0-6 4-10 10-10 6 0 11 4 11 10l0 267c0 6-5 11-11 11z m171 74l-139 0 0 64-234 0 0-64-139 0 0-21 75 0 0-416 362 0 0 416 75 0z m-352 43l192 0 0-43-192 0z m256-459l-320 0 0 395 320 0z"/>
<glyph unicode="&#57405;" d="M2 242c5-5 115-131 254-131 139 0 249 126 254 131 3 3 3 7 0 11-4 6-115 148-254 148-139 0-250-142-254-148-3-4-3-8 0-11z m254 142c116 0 214-110 236-136-22-24-120-120-236-120-116 0-214 96-236 120 22 26 120 136 236 136z m0-222c52 0 94 42 94 94 0 52-42 94-94 94-52 0-94-42-94-94 0-52 42-94 94-94z m0 171c42 0 77-35 77-77 0-42-35-77-77-77-42 0-77 35-77 77 0 42 35 77 77 77z"/>
<glyph unicode="&#57406;" d="M180 126c-2-4 1-9 5-10 24-8 52-9 71-9 73 0 138 38 180 70 45 34 73 68 74 69 3 4 3 8 0 11-1 2-34 40-87 78-4 3-9 2-12-1-3-4-2-10 2-12 40-29 68-59 79-70-22-25-120-128-236-128-18 0-44 1-66 8-4 1-9-1-10-6z m-178 131c-3-3-3-8 0-11 28-36 33-39 65-61 6-5 13-10 22-16 1-1 3-2 5-2 3 0 5 1 7 4 3 3 2 9-2 12-9 6-16 11-22 15-29 21-34 25-58 54 22 25 121 136 237 136 17 0 31-3 47-8l2 0c5-1 9 2 10 6 2 5-1 9-6 11l-1 0c-17 4-33 8-52 8-139 0-250-142-254-148z m177-5c0 43 34 77 77 77 5 0 9 3 9 8 0 5-4 9-9 9-53 0-94-42-94-94 0-5 4-9 9-9 4 0 8 4 8 9z m171 8c0 5-4 9-9 9-4 0-8-4-8-9 0-43-34-77-77-77-5 0-9-3-9-8 0-5 4-9 9-9 53 0 94 42 94 94z m105 211l-410-418c-3-3-3-9 0-12 2-2 4-3 6-3 2 0 5 1 6 3l410 418c3 3 3 9 0 12-4 3-9 3-12 0z"/>
<glyph unicode="&#57407;" d="M503 461l-494 0c-5 0-9-4-9-9l0-324c0-5 4-9 9-9l145 0 0-76c0-4 2-7 5-8 1-1 2-1 3-1 2 0 5 1 6 3l83 82 252 0c5 0 9 4 9 9l0 324c0 5-4 9-9 9z m-8-324l-248 0c-2 0-4-1-6-3l-70-71 0 65c0 5-4 9-9 9l-145 0 0 307 478 0z"/>
<glyph unicode="&#57408;" d="M268 452l-4 0c-52-1-102-22-139-60-37-37-58-87-57-139 2-109 87-193 193-193l4 0c52 1 102 22 139 60 38 37 58 87 57 139-2 109-87 193-193 193z m124-320c-34-35-80-54-128-55l-3 0c-97 0-174 77-176 176 0 47 18 93 52 127 34 35 80 54 128 55l3 0c97 0 174-77 176-176 1-48-18-93-52-127z m-127 90c4 0 8 4 8 8l0 120c0 5-4 8-8 8-5 0-9-3-9-8l0-120c0-4 4-8 9-8z m0-34c-1 0-1 0-1 0-9 0-17-8-17-18 1-9 8-16 18-16 0 0 0 0 0 0 9 0 17 8 17 17-1 9-8 17-17 17z"/>
<glyph unicode="&#57409;" d="M239 305l0-131c0-5 4-9 8-9 5 0 9 4 9 9l0 131c0 4-4 8-9 8-4 0-8-4-8-8z m25-188c0-9-8-16-17-16-9 0-16 7-16 16 0 9 7 16 16 16 9 0 17-7 17-16z m-9 322c-3 6-12 6-15 0l-188-375c-1-3-1-6 0-9 2-2 5-4 8-4l375 0c0 0 0 0 0 0 5 0 9 4 9 9 0 2-1 3-2 5z m-181-371l173 348 174-348z"/>
<glyph unicode="&#57410;" d="M247 444c-108 0-196-88-196-197 0-108 88-196 196-196 109 0 197 88 197 196 0 109-88 197-197 197z m0-376c-98 0-179 81-179 179 0 99 81 180 179 180 99 0 180-81 180-180 0-98-81-179-180-179z m52 69l-43 0 0 145c0 4-4 8-9 8l-34 0c-4 0-8-4-8-8 0-5 4-9 8-9l26 0 0-136-43 0c-4 0-8-4-8-9 0-5 4-9 8-9l103 0c4 0 8 4 8 9 0 5-4 9-8 9z m-60 204c9 0 17 8 17 17 0 10-8 17-17 17-9 0-17-7-17-17 0-9 8-17 17-17z m0 17l0-8 0 8z"/>
<glyph unicode="&#57411;" d="M265 154c0-10-8-17-18-17-9 0-17 7-17 17 0 9 8 17 17 17 10 0 18-8 18-17z m-18 307c-112 0-204-92-204-205 0-113 92-205 204-205 113 0 205 92 205 205 0 113-92 205-205 205z m0-393c-103 0-187 84-187 188 0 104 84 188 187 188 104 0 188-84 188-188 0-104-84-188-188-188z m0 290c-32 0-59-26-59-59 0-5 4-9 8-9 5 0 9 4 9 9 0 23 19 42 42 42 24 0 43-19 43-42 0-24-19-43-43-43-4 0-8-4-8-9l0-51c0-4 4-8 8-8 5 0 9 4 9 8l0 44c29 4 51 29 51 59 0 33-27 59-60 59z"/>
<glyph unicode="&#57412;" d="M506 264l-154 43c-1 0-1 0-2 0 0 0 0 0 0 0 0 0 0 0 0 0-1 0-1 0-2 0l-43-10c-4-1-7-5-6-10 1-5 5-7 10-6l32 7 0-230-170-39 0 230 18 4c5 1 8 6 7 11-1 4-6 7-11 6l-23-5-151 42c-3 1-5 0-8-2-2-1-3-4-3-6l0-248c0-4 3-7 6-8l154-43c1 0 1 0 2 0 0 0 0 0 0 0 0 0 0 0 0 0 1 0 1 0 2 0l186 42 151-42c1 0 2 0 2 0 2 0 4 1 6 2 2 1 3 4 3 7l0 247c0 4-3 7-6 8z m-489 23l137-37 0-230-137 38z m478-267l-137 38 0 229 137-37z m-251 432c7 0 13-6 13-13 0-5 4-9 8-9 5 0 9 4 9 9 0 16-14 30-30 30-5 0-9-4-9-9 0-4 4-8 9-8z m-5-93l0-214c0-5 4-8 8-8 5 0 9 3 9 8l0 214c38 4 68 37 68 76 0 43-34 77-77 77-42 0-76-34-76-77 0-39 30-72 68-76z m8 136c33 0 60-27 60-60 0-33-27-60-60-60-32 0-59 27-59 60 0 33 27 60 59 60z"/>
<glyph unicode="&#57413;" d="M503 68l-42 0 0 188 42 0c4 0 7 2 9 6 1 3 0 7-3 9l-65 50 0 97c0 5-4 9-9 9l-68 0c-5 0-9-4-9-9l0-33-97 74c-3 2-7 2-10 0l-248-188c-3-2-4-6-3-9 2-4 5-6 9-6l42 0 0-188-42 0c-5 0-9-4-9-8 0-5 4-9 9-9l494 0c5 0 9 4 9 9 0 4-4 8-9 8z m-128 342l52 0 0-76-52 38z m-119 32l222-169-444 0z m-137-374l0 17 86 0 0-17z m69 34l-51 0 0 103 51 0z m34-34l0 26c0 5-4 8-9 8l-8 0 0 111c0 5-4 9-9 9l-68 0c-5 0-9-4-9-9l0-111-8 0c-5 0-9-3-9-8l0-26-34 0 0 188 376 0 0-188z m179 154l-136 0c-5 0-9-4-9-9l0-68c0-5 4-8 9-8l136 0c5 0 9 3 9 8l0 68c0 5-4 9-9 9z m-8-68l-120 0 0 51 120 0z"/>
<glyph unicode="&#57414;" d="M256 464c115 0 208-93 208-208 0-115-93-208-208-208-115 0-208 93-208 208 0 115 93 208 208 208z m0-399c105 0 191 86 191 191 0 105-86 191-191 191-105 0-191-86-191-191 0-105 86-191 191-191z m8 319l0-120 120 0 0-17-120 0 0-119-17 0 0 119-119 0 0 17 119 0 0 120z"/>
<glyph unicode="&#57415;" d="M256 48c-115 0-208 93-208 208 0 115 93 208 208 208 115 0 208-93 208-208 0-115-93-208-208-208z"/>
<glyph unicode="&#57416;" d="M160 397l21 19 171-160-171-160-21 19 150 141z"/>
<glyph unicode="&#57418;" d="M397 352l19-21-160-171-160 171 19 21 141-150z"/>
<glyph unicode="&#57417;" d="M176 48l-176 176 80 83 112-107 248 248 72-72z"/>
<glyph unicode="&#57419;" d="M434 472c-3 3-9 3-12 0l-263-263-69 69c-3 4-9 4-12 0l-75-75c-2-2-3-4-3-6 0-2 1-5 3-6l150-151c2-2 4-2 6-2 2 0 5 0 6 2l345 344c1 2 2 4 2 6 0 3-1 5-2 7z m-275-414l-138 139 63 63 69-69c3-4 9-4 12 0l263 263 63-64z"/>
<glyph unicode="&#57420;" d="M497 508l-350-486-132 132c-4 4-9 4-12 0-4-3-4-8 0-12l139-140c2-1 4-2 6-2 1 0 1 0 1 0 3 0 5 2 6 4l355 494c3 4 2 10-2 12-3 3-9 2-11-2z"/>
<glyph unicode="&#57423;" d="M247 0c5 0 9 4 9 9l0 474 199-190c2-2 4-3 6-3 2 0 4 1 6 3 3 3 3 9 0 12l-214 205c0 0 0 0-1 0 0 1-1 1-1 1-2 1-5 1-7 0 0 0-1 0-1-1-1 0-1 0-1 0l-214-205c-3-3-3-9 0-12 3-4 9-4 12 0l199 190 0-474c0-5 4-9 8-9z"/>
<glyph unicode="&#57421;" d="M469 427l-426 0c-23 0-43-20-43-43l0-256c0-23 20-43 43-43l426 0c23 0 43 20 43 43l0 256c0 23-20 43-43 43z m-311-212l-76-51c-2-1-4-2-5-2-3 0-6 1-7 4-3 4-2 9 2 12l77 51c4 3 9 2 12-2 2-4 1-10-3-12z m284-49c-1-3-4-4-7-4-1 0-3 1-5 2l-76 51c-4 2-5 8-3 12 3 4 8 5 12 2l77-51c4-3 5-8 2-12z m-2 160l-179-120c-2-1-3-1-5-1-2 0-3 0-5 1l-179 120c-4 2-5 8-2 12 2 3 8 5 12 2l174-116 174 116c4 3 10 1 12-2 3-4 2-10-2-12z"/>
<glyph unicode="&#57424;" d="M503 307l-63 0c-4 15-10 30-17 43l44 45c2 1 3 3 3 6 0 2-1 4-3 6l-60 60c-4 4-9 4-12 0l-45-44c-14 7-31 14-43 17l0 63c0 5-4 9-8 9l-86 0c-4 0-8-4-8-9l0-63c-12-3-29-10-43-17l-45 44c-3 4-8 4-12 0l-60-60c-4-4-4-9 0-12l44-45c-7-14-14-31-17-43l-63 0c-5 0-9-4-9-8l0-69c0-4 4-8 9-8l62 0c4-22 11-44 18-60l-44-45c-2-1-3-3-3-6 0-2 1-4 3-6l60-60c4-4 9-4 12 0l45 44c10-5 22-9 32-12 4-2 8-3 11-4l0-64c0-5 4-9 8-9l86 0c4 0 8 4 8 9l0 64c3 1 7 2 11 4 10 3 22 7 32 12l45-44c3-4 8-4 12 0l60 60c4 4 4 9 0 12l-44 45c8 13 14 26 18 60l62 0c5 0 9 4 9 8l0 69c0 4-4 8-9 8z m-247-136c-47 0-85 38-85 85 0 47 38 85 85 85 47 0 85-38 85-85 0-47-38-85-85-85z"/>
<glyph unicode="&#57425;" d="M506 105c-43 11-62 27-62 52l0 119c0 80-46 149-117 178-7 33-36 57-71 57-34 0-64-24-71-57-71-29-117-98-117-178l0-119c0-25-19-41-62-52-4-1-6-5-6-9 1-4 4-7 9-7l494 0c5 0 8 3 9 7 0 4-2 8-6 9z m-199-36l-102 0c-5 0-9-3-9-8 0-40 20-60 60-60 40 0 60 20 60 60 0 5-4 8-9 8z"/>
<glyph unicode="&#57426;" d="M389 248c-18-18-42-26-73-26-26 0-49 6-68 17-17-11-36-17-60-17-29 0-50 8-67 26-20-7-42-9-53-9-6 0-11 1-17 2l0-232c0-5 4-9 9-9l392 0c5 0 9 4 9 9l0 234c-8-3-17-4-26-4-16 0-32 3-46 9z m-133-163l-154 0 0 103 154 0z m154-68l-86 0 0 171 86 0z m93 324l-110 0 0-76c17-8 35-9 42-9 9 0 18 2 26 5l0 0c29 11 51 40 51 72l0 8-9 0z m-126-81c-1 1-2 3-2 5l0 76-119 0 0-85c0 0 0-1 0-1 16-10 37-16 60-16 26 0 46 7 61 21z m-240 81l0-84c13-13 28-18 51-18 21 0 37 5 51 15 0 1 0 1 0 2l0 85z m-18-75l0 75-119 0 0-8c0-43 30-77 68-77 10 0 33 2 51 10z m274-172c0-5-4-9-9-9-5 0-9 4-9 9 0 5 4 8 9 8 5 0 9-3 9-8z m-369 264l98 0 28 86-90 0c-3 0-6-2-8-4l-38-65-10-17z m215 0l0 86-71 0-28-86z m249 0l20 0-10 17-38 65c-2 2-5 4-8 4l-90 0 28-86z m-144 86l-88 0 0-86 116 0z"/>
<glyph unicode="&#57427;" d="M512 318c-2 4-5 6-9 6l-181 0-58 182c-1 4-4 6-8 6-4 0-7-2-8-6l-58-182-181 0c-4 0-7-2-9-6-1-3 0-7 3-9l146-110-63-188c-1-3 0-7 3-9 1-1 3-2 5-2 2 0 3 1 5 2l157 115 157-115c3-3 7-3 10 0 3 2 4 6 3 9l-63 193 145 105c3 2 5 6 4 9z"/>
<glyph unicode="&#57428;" d="M489 159c-1 0-1 1-2 1l-214 115c1 5 1 8 2 10 1 0 2 1 4 2 20 9 45 21 45 63 0 38-30 68-68 68-38 0-68-30-68-68 0-10 7-17 17-17 9 0 17 7 17 17 0 19 15 34 34 34 19 0 34-15 34-34 0-20-7-23-26-33-2-1-5-2-7-3-14-7-17-25-18-39l-214-115c-1 0-1-1-2-1-12-9-18-25-13-41 5-15 17-24 31-24l430 0c14 0 26 9 31 24 5 16-1 32-13 41z m-20-31l-426 0c0 1-1 2 0 3l213 114 213-114c0-1 0-2 0-3z"/>
<glyph unicode="&#57429;" d="M256 512c-141 0-256-115-256-256 0-141 115-256 256-256 141 0 256 115 256 256 0 141-115 256-256 256z m-68-299c0-3-3-7-6-8-3-1-7 0-9 3l-54 66 0-61c0-5-3-9-8-9-5 0-9 4-9 9l0 86c0 3 3 7 6 8 4 1 7 0 10-3l53-66 0 61c0 4 3 8 8 8 5 0 9-4 9-8z m74 51c4 0 8-4 8-8 0-5-4-9-8-9 0 0 0 0-1 0l-39 0 0-25 51 0c5 0 9-4 9-9 0-4-4-8-9-8l-60 0c-4 0-8 4-8 8l0 86c0 4 4 8 8 8l60 0c5 0 9-4 9-8 0-5-4-9-9-9l-51 0 0-26z m147-54c-1-4-4-6-8-6-3 0-6 2-8 6l-24 64-24-64c-1-4-5-6-8-6-4 0-7 2-8 6l-32 86c-2 4 0 9 5 11 4 1 9-1 11-5l24-65 24 65c1 3 5 5 8 5 4 0 7-2 8-5l24-65 25 65c1 4 6 6 11 5 4-2 6-7 5-11z"/>
<glyph unicode="&#57432;" d="M480 259c2-124-97-225-221-227-124-2-225 97-227 221-2 124 97 225 221 227 124 2 225-97 227-221z m-224 141c-18 0-32-14-32-32 0-18 14-32 32-32 18 0 32 14 32 32 0 18-14 32-32 32z m44-283l0 11-22 0 0 172-66 0 0-12 22 0 0-160-22 0 0-11z"/>
<glyph unicode="&#57433;" d="M256 480c124 0 224-100 224-224 0-124-100-224-224-224-124 0-224 100-224 224 0 124 100 224 224 224z m20-327c1 18-12 31-29 31-16 0-30-11-30-29 0-18 12-30 28-30 17 0 31 10 31 28z m49 128c7 10 12 22 12 36 0 23-9 40-25 52-17 13-37 18-62 18-19 0-34-4-47-13-19-13-28-34-28-68l49 0c0 9-1 19 4 27 5 8 13 15 26 15 13 0 19-3 25-11 5-7 8-15 8-23 0-7-4-14-8-20-2-4-6-7-10-10 0 0-26-15-35-30-7-11-9-24-10-41 0-1 0-4 4-4l39 0c0 0 5 3 5 4 0 6 1 15 2 19 2 7 6 12 12 17l14 9c12 9 21 17 25 23z"/>
<glyph unicode="&#57430;" d="M375 512l-221 0c-33 0-60-27-60-60l0-392c0-33 27-60 60-60l221 0c33 0 60 27 60 60l0 392c0 33-27 60-60 60z m-162-34l103 0c4 0 8-4 8-9 0-4-4-8-8-8l-103 0c-4 0-8 4-8 8 0 5 4 9 8 9z m-17-427l-17 0 0 17 17 0z m120-8c0-5-4-9-9-9l-85 0c-5 0-9 4-9 9l0 34c0 5 4 8 9 8l85 0c5 0 9-3 9-8z m34 8l-17 0 0 17 17 0z m51 77c0-14-11-26-26-26l-221 0c-15 0-26 12-26 26l0 290c0 14 11 26 26 26l221 0c15 0 26-12 26-26z"/>
<glyph unicode="&#57422;" d="M470 341l-410 0c-5 0-9-3-9-8l0-324c0-5 4-9 9-9l410 0c4 0 8 4 8 9l0 324c0 5-4 8-8 8z m-111 15c-6 0-11 5-11 10 0 62-41 112-92 112-50 0-91-50-91-112 0-5-5-10-11-10-6 0-11 5-11 10 0 74 51 134 113 134 63 0 113-60 113-134 0-5-4-10-10-10z"/>
<glyph unicode="&#57376;" d="M280 256l227 227c7 7 7 17 0 24-7 7-17 7-24 0l-227-227-227 227c-7 7-17 7-24 0-7-7-7-17 0-24l227-227-227-227c-7-7-7-17 0-24 3-3 8-5 12-5 4 0 9 2 12 5l227 227 227-227c3-3 8-5 12-5 4 0 9 2 12 5 7 7 7 17 0 24z"/>
<glyph unicode="&#57431;" d="M114 307c7 0 14 0 23 0 34-2 56-8 64-17 6-15-3-61-27-80-8-7-24-10-41-10-25 0-48 8-54 15-16 15-16 73-11 82 4 3 9 10 46 10m0 14c-42 0-51-10-56-16-9-13-7-80 12-100 10-12 38-19 63-19 19 0 38 3 50 14 27 22 39 76 29 97-4 5-14 19-75 24-9 0-16 0-23 0z m311 15c41 0 65-3 67-5 3-2 1-24-2-32 0-2-4-2-5-2-5-3-14-61-24-82-12-24-48-39-84-39-24 0-48 7-66 22-12 12-23 32-31 49-4 7-9 28-12 31-3 4-9 4-14 4-8 0-13-2-17-6-1-1-7-23-10-30-9-19-17-38-31-50-19-15-42-22-66-22-36 0-70 15-84 39-12 21-19 79-24 82-2 0-3 0-5 2 0 12 0 32 2 34 1 2 25 5 66 5 11 0 23 0 36-1 62-4 118-26 133-28 17 2 74 24 133 28 16 1 28 1 38 1m0 14c-12 0-24 0-36-2-44-2-85-13-111-22-8-3-17-5-22-5-5 0-12 3-22 5-27 9-68 19-111 22-12 0-24 2-36 2-31 0-67-2-73-7-16-8-5-48-5-48 1-3 3-7 8-8 2-5 3-16 5-24 5-19 9-41 16-55 13-27 51-46 93-46 29 0 57 9 76 26 11 12 22 29 32 54 2 4 3 9 5 16 2 3 2 8 3 10 2 0 4 2 7 2 4 0 4 0 5 0 2-4 6-12 7-17 2-4 4-7 4-11 10-24 20-42 32-54 19-16 46-26 75-26 43 0 80 19 94 46 7 12 12 34 15 55 2 8 4 19 6 24 5 1 6 5 8 8 0 0 10 40-5 48-3 3-39 7-70 7z m-27-43c37 0 42-8 46-10 5-9 5-67-11-84-6-6-29-15-54-15-19 0-34 3-41 10-22 19-33 65-27 80 8 11 30 16 64 17 9 2 16 2 23 2m0 14c-7 0-14 0-23 0-61-4-71-19-75-24-10-21 2-75 29-97 12-9 31-14 50-14 25 0 53 7 63 19 19 20 21 87 12 99-5 7-14 17-56 17z m-345-9c0-1-7-3-14-3-7 0-13 3-13 5 0 2 6 3 13 3 9 0 14-1 14-5z m401 0c0-1 7-3 14-3 6 0 13 3 13 5 0 2-7 3-13 3-9 0-14-1-14-5z"/>
<glyph unicode="&#57434;" d="M393 232c0 9 3 29 6 50 4 22 9 42 9 54 0 7-4 14-9 24-3 9-8 19-13 33-7 17-7 42-7 61 0 15 0 24-4 29-5 10-30 20-40 24 0 0-2 0-2 0 0 0-2 0-2 0 0 0-2 0-2 0 0 0-1 0-1 0-17-19-50-50-65-51l-14 0c-15 0-48 30-65 51 0 0 0 0-1 0 0 0-2 0-2 0 0 0-2 0-2 0 0 0-2 0-2 0-10-4-35-14-40-24-2-3-2-12-4-27 0-19 0-45-7-62-3-13-8-24-12-32-5-10-8-19-8-26 0-12 3-32 8-54 2-21 5-41 5-50 0-7 0-20 2-37 2-29 5-70 4-105-2-42-11-78-11-78 0-2 0-3 2-5 2-2 3-2 5-2l270 0c2 0 3 2 5 2 2 0 2 3 2 5 0 0-11 39-11 84 0 34 2 73 4 100 0 16 2 29 2 36z m-76 150c-5-7-13-13-20-17-2 12-2 34 3 58 5 21 23 38 33 46 2-27 2-63-16-87z m-68 60l14 0c19 0 49 31 65 46l0-2c0-1 0-1 0-3-11-7-36-29-43-58-7-27-5-55-3-65-9-2-17-3-28-3-10 0-18 1-27 3 2 12 3 38-3 65-7 29-33 49-43 58 0 2 0 3 0 3l0 2c19-15 49-44 68-46z m-68 26c10-9 27-26 32-46 5-23 4-47 4-58-9 3-16 10-21 17-19 25-19 61-15 87z m205-185c-4-22-7-42-7-51 0-7 0-20-2-37-2-28-5-67-3-101 0-34 7-65 8-79l-252 0c3 14 8 41 8 74 0 36-1 77-3 106-2 17-2 30-2 35 0 11-3 29-7 52-3 20-7 42-7 51 0 3 4 10 7 20 4 12 9 22 12 36 9 21 9 46 9 65 0 9 0 20 1 22 2 4 11 9 23 16 0 0 0-2 0-2l-2-9c0 0 0 0 0-1-5-28-9-76 15-106 16-21 40-31 72-31 32 0 56 10 72 31 24 30 20 78 15 106 0 0 0 0 0 1l-2 7c0 0 0 2 0 2 12-5 23-10 24-14 2-2 2-13 2-22 0-19 0-46 7-65 5-14 10-24 13-32 4-11 7-17 7-21 0-10-3-31-8-53z"/>
<glyph unicode="&#57435;" d="M411 396c-7 60-20 102-46 106-15 3-68 5-109 5-41 0-94-2-109-5-84-16-39-442-34-492l0-5 286 0 0 5c4 34 26 251 12 386z m-24-379l-262 0c-12 114-21 268-12 369l71 46-7 10-63-39c5 49 17 83 34 87 12 2 55 3 106 3 51 0 96-1 106-3 17-4 29-36 34-84l-58 38-7-11 67-42c12-103 3-258-9-374z"/>
<glyph unicode="&#57436;" d="M343 331c-7 29-17 51-20 56l-4 21c4 10 14 66 12 82 0 2-7 22-34 22-19 0-32-7-41-17-9 8-22 17-36 17-19 0-37-19-37-19l-2-1 0-2c0-14 10-72 12-82l-4-21c-3-5-15-27-20-56-3-20 0-104 2-186 1-61 3-125 1-136l-1-7 170 0-1 7c-2 11 0 75 1 136 4 82 5 166 2 186z m-119 167c13 0 27-13 27-20l0-7 14 0 0 7c0 7 13 19 34 19 17 0 20-11 20-11 0-8-5-44-10-71l-102 0c-6 25-11 59-11 70 5 5 17 13 28 13z m-17-97l100 0 2-10-104 0z m121-256c-2-58-4-111-2-131l-140 0c0 22 0 73 0 131-3 77-5 164-2 183 4 22 14 42 17 49l111 0c4-7 14-25 17-49 4-19 0-106-1-183z"/>
<glyph unicode="&#57437;" d="M500 111c-10 5-24 5-34 5 0 7 0 15 0 27l0 4-3 1c0 0-45 19-89 33l-2 0-2-2c-12-7-92-36-152-29-5 9-10 19-13 27-4 6-5 11-9 16-7 10-34 31-54 46 5 15 18 61 15 80-2 16-26 58-34 75-34 63-39 63-44 62-9-2-38-28-57-63-17-35-19-79-19-82l2-4c4-10 17-49 22-82 5-37 17-162 17-164l0-5 36 0 0 197c0 1 4 3 7 5l44-28c21-13 50-34 53-42 2-5 5-11 9-16 24-44 58-111 140-111 2 0 3 0 3 0 97 4 167 16 167 16l4 3c2 9 5 28-7 31z m-466 276c15 28 36 50 46 55 14-17 62-106 65-123 2-15-7-51-14-72-10 6-15 9-17 9l-97 58c0 12 3 46 17 73z m21-319l-2 11 12 0 0-11z m12 185l0-163-14 0c-4 40-10 110-14 135-3 26-12 53-17 70l53-30c-7-2-8-7-8-12z m341-173c-14-1-31-1-46-3 19 17 46 51 37 83 4-1 9-3 12-3 4-7 26-46-3-77z m20 70c12-5 21-8 26-10l-2-56c-8-2-17-2-25-4 15 26 8 53 1 70z m-201-12c49-3 108 14 135 26-27-63-91-63-103-63-13 12-23 24-32 37z m108-63c-2 0-2 0-4 0-22 0-41 5-56 14 29 3 78 19 100 78 2 0 6-1 7-1 21-36-30-82-41-91-1 0-3 0-6 0z m162 15c-5-1-17-3-33-5l0 19c9 0 22 0 31-3 2-2 2-7 2-11z"/>
<glyph unicode="&#57438;" d="M393 413c-9 9-21 14-35 17-5 2-10 2-15 2-24 0-41-10-44-26 0-3 0-8 1-13-1-4-3-9-5-12-3-21 9-48 29-58l-15-41-39 0 0 116c25 3 44 29 44 51 0 3 0 8-2 12 4 3 7 8 7 15 0 19-24 34-54 34-31 0-53-15-53-34 0-5 1-8 5-13-2-6-2-9-2-14 0-22 19-48 44-51l0-116-34 0-25 58c17 13 25 39 18 58-1 5-3 8-6 12 1 5 1 10 0 13-5 17-33 26-64 16-13-6-25-12-32-21-8-10-12-20-8-29 1-5 5-8 10-12 0-3 1-8 1-12 7-19 29-36 52-36 5 0 10 0 13 2 0 0 2 0 2 2l22-51-27 0 0-231c0-36 22-48 22-48l126 0c2 0 23 12 23 48l0 231-31 0 15 37c2 0 5 0 7 0 26 0 48 22 51 43 0 3 0 7 0 12 5 3 9 7 9 13 5 9 0 19-10 26z m-142 36c3-2 7-2 12-2 5 0 8 0 13 2-5-4-8-9-10-12 0 0 0 0-1-2-4 5-7 10-14 14z m-5 22c0 2 1 5 3 7 2 2 5 3 10 3 2 0 4 0 7-1 2 0 2-2 2-4 0-2 0-2-2-3-1-2-3-2-5-2 0 0-2 0-2 0l-6-10c0 0-2 0-2 0-4 5-5 7-5 10z m19-61c0 0-2 0 0 0 0 5 1 8 5 12 0 1 1 1 3 5 3 5 10 13 19 18 3 2 7 4 10 7 0 0 0-1 0-1 0-21-17-41-37-41z m32 78c7-3 10-8 10-14 0-5-8-10-17-15 5 7 9 14 9 21 0 3 0 6-2 8z m-32 9c5 0 8-2 11-4 7-3 11-8 11-13 0-4-2-7-5-12-6-5-11-7-17-7 3 0 6 2 10 5 3 3 5 7 5 12 0 5-4 10-9 14 0 0-1 0-1 1-4 0-7 2-12 2-7 0-14-3-19-7-5-5-7-10-7-15 0-2 0-4 0-5l2-7c-9 7-10 12-10 13 0 11 17 23 41 23z m-40-48c0 0 0 2 0 2 5-4 11-9 17-12 9-6 12-11 14-12-2-4-5-9-5-14-15 5-26 22-26 36z m-20-55c5-13 0-32-12-42-4 5-7 8-10 12 0 3 1 8 8 17 5 6 9 12 12 17 2-4 2-4 2-4z m-34-24c-4 4-9 5-14 9 0 0 2 0 2 0 8 0 17 3 24 7-7-5-9-12-12-16 1 0 0 0 0 0z m-4 36c-1 0-3-2-5-2 0 0-2 0-3 0-2 0-2 2-2 4 0 2 0 2 2 3 1 4 7 5 10 5 2 0 3 0 5-1 3-2 5-5 5-9 0-2-2-5-3-7 0 0 0 0 0-1z m-24 14c4 2 5 5 11 7 20 6 42 1 44-9 0-2 0-8-7-19 0 2 2 5 2 7 0 9-5 16-12 19-4 2-7 2-12 2-9 1-15-2-21-7-3-4-5-7-5-12 0-7 4-12 9-15 3 0 7 0 10 0 0 0 2 0 2 0-2 0-4 0-7 0-2-2-5 0-9 0 0 0-1 0-1 1-4 2-9 7-9 12 0 4 2 9 5 14z m-18-10c0-2 0-2 0-4 0-10 5-19 15-24-9 2-19 5-21 11-1 5 0 10 6 17z m6-41c0 0 0 1 0 1 6 0 9 0 14-1 9-2 17-7 22-11 2-1 4-3 5-3 4-3 7-5 11-10 0 0 0 0-2 0-21-9-43 7-50 24z m210-318c0-24-12-34-15-36l-116 0c-3 4-15 12-15 36l0 217 146 0z m45 353c3-3 8-8 8-15-1-7-12-10-20-14 10 9 13 18 13 23-1 1-1 3-1 6z m-43 14c3 0 9 0 12-2 5-1 9-3 12-6 5-6 7-9 7-14 0-5-4-10-9-12-3-2-8-3-13-3-2 0-2 0-4 0 4 0 9 1 10 3 6 3 7 9 7 14 0 5-1 8-5 12-3 5-10 8-17 8-5-2-10-3-14-5-6-5-10-10-10-19 0-3 0-7 2-10-9 10-10 15-10 19 1 8 15 15 32 15z m2-58c0-2 0-2 0 0-4 4-7 9-12 14 5-4 12-5 19-5 1 0 5 0 6 0-5-2-10-7-13-9z m-14 34c0 4 2 5 5 9 0 0 0 0 2 0 2 1 3 1 7 1 3 0 5 0 8-1 0 0 0 0 2-2 2-2 2-2 2-3 0-2 0-2-2-4 0 0-2 0-2-1-1 0-3 0-5 1l-8-10c0 0 0 0-2 2-5 3-7 7-7 8z m-22-17c0 0 0 2 0 2 3-5 8-10 14-15 6-7 10-12 10-16-4-3-7-7-9-12-12 10-19 28-15 41z m75-13c-3-18-24-36-44-33 0 0-2 0-2 0 2 5 5 9 8 10 2 2 4 2 6 4 5 5 12 12 22 15 3 2 8 4 12 4-2 1-2 0-2 0z"/>
<glyph unicode="&#57439;" d="M329 312l19 168c0 3-2 5-3 6l-55 26c-2 2-3 0-5 0-2-2-3-3-3-5-2-21-11-62-26-62-17 0-26 41-26 62 0 2-1 3-3 5-3 0-5 0-9 0l-52-26c-2-1-4-3-4-6l19-169 2 0c-40-36-19-258-14-304 0-4 3-5 7-5l164 0c3 0 6 1 6 5 0 0 9 75 9 148 2 116-12 149-26 157z m-153 166l41 19c3-21 12-64 37-64 28 0 36 43 38 64l43-19-18-161c-12 2-39 2-61 2-24 0-53 0-63-2z m157-464l-152 0c-14 140-14 285 14 290 6 1 32 1 63 1 30 0 56-1 63-1 24-5 25-150 12-290z"/>
<glyph unicode="&#57440;" d="M3 502l0-483 507 0 0 483z m494-236l-192 0c36 12 82 33 93 60 5 14 0 27-12 43-11 12-22 18-34 18-38 0-72-59-89-97l0 198 234 0z m-231 2c16 37 51 104 84 104 8 0 17-5 24-14 8-10 12-20 8-29-8-29-77-51-116-61z m-17 220l0-196c-17 37-49 94-87 94-12 0-24-7-34-19-12-14-17-29-12-43 10-29 55-48 92-59l-193 0 0 221 234 0z m-3-220c-38 8-108 31-118 61-3 9 0 19 9 29 8 9 17 14 23 14 36 2 70-67 86-104z m-231-15l227 0-90-106c-2-4-2-7 0-9 2 0 3-1 5-1 2 0 3 0 5 1l89 103 0-210-236 0z m248-222l0 213 90-104c2-2 4-2 5-2 2 0 4 0 4 2 3 2 3 7 0 8l-91 106 226 0 0-222-234 0z"/>
<glyph unicode="&#57441;" d="M510 295l-111 0 0 33-116-33-56 0-116 33 0-33-109 0 0-51 111 0 0-60 116 45 54 0 116-45 0 60 111 0z m-496-37l0 25 97 0 0-25z m111-14l0 67 95-26 0-12-7 2-3-12 10-4 0-3-43-10 4-12 39 10 0-5-95-36z m153-3l-44 0 0 42 44 0z m109-38l-97 36 0 3 39-10 4 12-43 12 0 5 10 4-3 11-7-3 0 10 96 28 0-108z m111 55l-97 0 0 25 97 0z"/>
<glyph unicode="&#57442;" d="M468 381l-2 3-102 0c-9 32-23 67-38 79-3 3-10 8-12 10l-12 10c-10 10-26 19-46 19-26 0-41-14-49-26l-6-3c-1-2-8-9-10-10-15-14-29-47-37-79l-108 0-2-3c-44-93-59-333-13-369l1-2 448 0 1 2c46 36 31 276-13 369z m-101-67c0-10-9-19-19-19-10 0-19 9-19 17 0 0 6 31 4 65-2 22-7 51-12 70 22-29 39-106 46-133z m-179 0c0-10-9-19-19-19-10 0-19 9-19 17 5 29 22 103 43 133l2 0c-6-18-12-46-11-66-1-36 4-65 4-65z m20 140c2 2 22 14 50 14 22 0 42-9 49-12 5-16 12-46 14-72l-126 0c3 24 10 55 13 70z m48 36c15 0 27-7 34-14-10 2-22 5-34 5-12 0-24-1-34-5 8 7 19 14 34 14z m220-468l-438 0c-38 36-26 253 17 348l95 0c-8-29-13-54-13-58 0-17 13-30 30-30 17 0 33 15 31 32 0 0-5 26-3 56l126 0c0-30-4-56-4-58 0-17 14-30 31-30 17 0 31 15 31 34 0 1-5 25-12 54l92 0c43-95 53-312 17-348z"/>
<glyph unicode="&#57443;" d="M393 375c-19 16-108 96-123 108-41 38-45 38-86 0l-121-108 0-254 138 0 0-119 246 0 0 373z m-316-6l116 104c34 30 34 30 68 0 14-12 82-72 113-99l-173 0 0-108-111 86-15 0 0 17z m0-29l12 0 114-89 0-21-126-88z m10-207l114 82 0-82z m348-119l-220 0 0 348 220 0z m-20 322l-179 0 0-295 177 0 0 295z m-14-283l-152 0 0 270 152 0z m-128 172l102 0 0-13-102 0z m0-42l102 0 0-14-102 0z m0-43l102 0 0-14-102 0z m0-41l102 0 0-14-102 0z m46 166c4-2 7-6 7-7 0 1 3 5 7 7 3 3 8 5 8 10 0 12-12 13-15 3-3 10-15 7-15-3 0-5 5-7 8-10z"/>
<glyph unicode="&#57444;" d="M352 471l-4 38-7 0c0 0-49-6-87-6-37 0-83 6-83 6l-7 0-5-38c-2-5-12-51-4-142 9-92 22-315 22-319l0-7 47 0 17 181 15 144 36-325 39 0 0 7c0 2 14 227 22 319 12 91 0 135-1 142z m-11-8c0-6 2-19 4-36-12 1-36 10-40 34z m-87 27c31 0 69 3 82 3l2-19-82-3-2 0-83 5 1 17c16 0 52-3 82-3z m-44-29c-3-28-34-34-44-34 1 17 3 30 5 37z m19-275l-17-169-23 0c-1 36-13 229-22 312-1 36-1 64-1 84 20 2 52 14 58 48l27-2 0-70z m114 145c-8-85-19-276-22-314l-16 0-42 379 0 63 29 2c3-33 34-45 53-46 1-22 1-50-2-84z m-80 149c0-3-2-6-5-6-3 0-5 3-5 6 0 2 2 5 5 5 3 0 5-3 5-5z"/>
<glyph unicode="&#57445;" d="M355 365c-38 0-72-13-99-36-20 17-48 29-75 35l51 56c2 2 2 7 0 8l-27 28c-2 1-4 1-5 1l-40 0c0 0 0 0-1 0l-41 0c-2 0-4 0-5-1l-24-28c-4-3-4-6 0-8l49-56c-77-11-135-76-135-154 0-85 70-155 156-155 37 0 71 13 99 35 27-22 61-35 99-35 85 0 155 70 155 155-2 85-72 155-157 155z m-176 51l-20-44-19 44z m-31 14l12 12 11-12z m45-14l20 0-39-41z m5 14l5 10 9-10z m-12 2l-12 12 15 0z m-53 1l-3 12 15 0z m10-58l-35 41 18 0z m-27 65l5-10-13 0z m41-373c-78 0-142 63-142 141 0 79 64 142 142 142 34 0 65-12 89-31-29-29-46-68-46-111 0-42 18-82 46-111-24-18-55-30-89-30z m143 143c0-41-17-77-44-102-27 25-44 61-44 102 0 41 17 77 44 102 27-25 44-63 44-102z m55-143c-34 0-65 12-89 30 29 29 46 69 46 111 0 43-18 82-46 111 24 19 55 31 89 31 78 0 142-63 142-142 0-78-64-141-142-141z"/>
<glyph unicode="&#57446;" d="M433 26c0 0-44 58-54 80-10 24-51 140-56 174-2 8-2 19-2 29 0 14-2 31-5 44-4 22-12 38-14 41l-3 14c1 8 8 46 8 55 0 3 0 5 0 8-2 10-2 19 5 24 2 2 2 5 2 7-2 3-3 5-20 7-2 0-4 0-6-2-1-2-1-4-1-5 0 0 0-5-4-9-1-1-5-3-8-7-9-8-16-15-21-18-3 3-8 8-15 15-5 3-10 9-12 10-3 5-3 10-3 10 0 2-2 4-2 6 0 1-4 1-5 1l-16-3c-1 0-5-2-5-5 0-2 0-5 2-7 7-5 7-14 5-24 0-3 0-5 0-8 0-9 7-47 9-55l-4-12c0 0-8-19-13-39-4-14-4-31-6-45 0-12-1-22-1-29-5-34-45-148-57-174-10-22-52-80-54-80-2-2-2-3 0-7 2-3 3-5 7-5 13-2 29-5 32-8 2-2 2-2 3-2 0 0 81-7 137-7 58 0 137 5 137 5 3 0 5 2 5 4 1 1 17 5 30 6 2 0 5 2 5 4 2 3 2 5 0 7z m-209 375l64 0 0-2-66 0z m-7 68c0 5 1 12 0 19 0 0 0-2 1-2 2-3 7-6 14-12 7-5 17-15 19-17 0-3 3-6 7-6 3 0 7 1 7 5 1 5 15 17 22 22 3 3 7 5 8 8 0 0 0 0 0 2 0-7 0-12 0-17 0-3 0-5 0-7 0-5-3-31-7-48l-64 0c-4 17-7 43-7 48 0 0 0 2 0 5z m172-450c-15-2-82-5-133-5-51 0-121 5-135 6-7 6-17 7-27 9 14 17 41 56 49 75 11 22 52 140 57 178 1 8 1 20 3 30 0 14 2 29 4 41 3 14 8 26 11 33l74 0c3-5 8-17 10-34 3-14 3-28 3-43 0-12 2-22 4-31 5-34 46-153 56-177 9-19 36-57 48-74-9-1-19-3-24-8z"/>
<glyph unicode="&#57447;" d="M348 157l4 9c22 66 42 148 15 177-2 3-9 15-21 29 0 7-3 29-18 48l10 13-10 9-9-12c-12 10-31 19-56 21l0 15-14 0 0-15c-22-2-41-7-53-19l-10 12-10-9 12-15c-14-19-14-41-12-48-10-12-17-24-19-29-29-31-7-113 15-179l2-7c3-12 12-26 21-38 1-6 8-34 5-54-4-22-24-53-24-53l10-7c2 2 22 34 27 58 2 12 2 27 0 39 16-12 33-22 52-22l1 0c21 0 38 10 51 24-1-14-3-29-1-43 5-25 25-58 27-58l10 7c0 0-20 31-24 53-3 21 4 56 6 60 5 12 10 24 13 34z m-153 203c-6-2-12-3-18-5 4 3 6 7 11 12z m1 15c4 4 9 7 14 11l-7-17z m26 7l7-13c-5 0-9-2-12-2z m8 12c7 2 14 4 21 4l-12-21z m31-1l12-24c-5 0-8 0-14 0-3 0-6 0-10 0z m10 6c7 0 14-1 21-3l-9-19z m29-17l5-17c-3 0-8 2-11 2z m12 4c5-4 11-7 14-11l-9-6z m23-19c3-5 6-9 10-12-5 2-10 3-17 5z m-79 70c51 0 70-29 75-50-17 14-39 24-70 24-32 0-56-12-72-27 2 10 6 22 14 32 10 16 29 21 53 21z m-90-101c17 9 46 21 93 21 53 0 86-14 98-21 12-12 12-37 7-65-2 2-4 4-4 5-14 21-29 45-101 33-71 12-87-12-97-33-2-1-2-3-3-5-5 28-4 53 7 65z m97-242l-2-7 2 7c-36 0-68 39-77 66l-2 7c-5 17-17 51-22 86 5 5 9 10 12 15 10 19 22 37 85 26l4 0c65 11 78-9 89-28 3-5 6-10 12-15-7-33-18-67-23-84l-3-8c-10-26-39-63-75-65z m155 191c-3 142-61 222-162 225l0-7 0 7c-101-3-159-83-164-225-2-65-46-203-46-205l12-3c2 5 44 141 48 208 3 94 31 208 150 213 119-5 147-119 150-213 2-67 46-201 48-208l12 3c0 2-44 140-48 205z"/>
<glyph unicode="&#57448;" d="M432 403c-4 46-14 73-29 82-10 5-24 10-38 15-8 3-17 5-24 9-10 3-15-7-22-17-10-18-24-45-63-45-39 0-53 27-63 45-7 10-12 22-22 17-7-4-16-6-24-9-14-3-28-8-38-14-15-8-24-35-29-78-1-27-7-381-7-396 0-3 4-7 6-7l42-3c2 0 4 0 5 1 2 2 2 4 2 6l5 104c21 1 72 5 128 5 50 0 99-4 114-4l7-104c0-1 2-3 2-5 2-2 3-2 3-2l43 4c3 0 7 3 5 7 4 13-2 363-3 389z m-282-200c-2-10-7-24-12-39l7 106c3-31 7-57 5-67z m217 65l7-102c-7 17-10 30-12 37-2 10 2 34 5 65z m29-253l-12 192-9 121c2 7 2 13 4 20 3 17 5 34 8 50l-12 1c-1-15-5-30-8-49-10-63-21-130-19-150 2-17 16-50 27-75-18 1-64 3-114 3-54 0-104-3-126-5 8 20 24 58 27 77 4 20-8 85-19 150-3 17-5 34-8 49l-10-1c1-16 5-33 8-50 2-5 2-12 4-17l-21-316-31 2c0 48 5 364 9 387 3 38 12 64 22 69 9 5 22 8 36 13 8 4 17 6 22 9 2-2 5-7 7-12 10-19 27-51 75-51 46 0 63 32 73 51 2 3 6 9 7 10 7-3 16-5 24-8 14-5 27-9 36-14 12-7 19-32 22-72 2-20 7-334 9-382z"/>
<glyph unicode="&#57449;" d="M379 131c-4 9-7 16-10 23-9 18-17 35-21 76-3 33 9 62 17 84 5 12 9 22 9 29 0 21-10 50-21 68-10 22-32 79-34 79-2 3-14 20-65 20-53 0-63-17-65-20 0 0-22-57-34-79-7-18-17-47-17-68 0-7 4-15 9-29 8-22 20-51 17-84-4-41-12-59-21-76-3-7-6-14-10-23-8-22-7-39-7-39l0-5 5-2c0 0 31-8 60-32 31-24 55-51 55-51l1-2 19 0 2 2c0 0 24 25 55 51 30 24 59 32 59 32l5 2 0 5c0 2 0 17-8 39z m-176 354c2 1 12 13 53 13 43 0 51-12 51-12 2-5 17-46 5-71-8-17-18-28-27-36-12-12-22-22-24-44l-14 0c-1 29-13 37-25 47-9 7-17 16-26 33-8 24 5 65 7 70z m111-420c-27-22-48-45-55-51l-6 0c-7 6-28 29-55 51-26 20-50 29-60 32 0 5 2 17 7 29 3 7 7 14 10 21 9 19 19 37 22 82 4 36-8 66-18 90-5 10-9 19-9 24 0 14 7 39 19 63 3 7 7 16 12 26 0-9 2-17 5-24 9-19 21-29 29-36 12-10 21-17 21-44l0-7 39 0 0 7c0 22 8 30 20 41 9 8 21 20 29 39 4 7 5 15 5 24 6-10 9-21 12-26 12-24 19-49 19-63 0-5-3-14-7-24-8-22-20-54-18-90 3-45 13-63 22-82 3-7 7-14 10-21 5-12 7-24 7-29-10-3-34-12-60-32z"/>
<glyph unicode="&#57450;" d="M425 7l0 7c0 13-5 336-7 358-3 43-12 68-27 77-9 5-22 8-36 14-9 3-15 5-22 6-10 4-17 9-21 11l-17 30-80 0-17-30c-3-2-10-7-21-11-5-3-13-5-20-8-14-4-27-9-36-14-13-7-22-31-25-72-4-25-9-349-9-363l0-7 53-3 7 117c17-3 68-13 121-13 51 0 84 8 97 12l7-116z m-68 249l5-65 2-25-14 17c0 13 3 42 7 73z m-75 229c-4-5-9-7-9-7l-15-2 24-20-26-132-26 132 24 20-15 2c0 0-5 2-10 5-2 3-4 9-4 14l58 0c2-5 2-9-1-12z m-127-231c5-32 7-58 9-73l-14-17 2 25z m-7-112l28 35 0 2c0 26-14 111-24 181l-12 0c2-14 5-29 7-43l-9-124-10-176-27 2c0 46 5 333 7 355 3 34 10 58 20 63 9 5 20 8 32 12 9 3 16 5 23 8 13 6 24 12 24 12l8 16c2-4 2-5 3-9 2-3 6-5 7-7l-8-8 32-164 16-90 1-86c-54 0-104 10-118 14z m130-23l-2 88-13 83 32 171-10 8c2 2 5 4 7 7 2 2 3 5 3 7l7-14 2-1c0 0 10-7 24-12 7-4 15-5 22-9 12-3 25-8 32-12 11-5 17-29 21-66 1-21 7-308 7-352l-26 0-10 176-9 126c2 16 5 31 7 43l-12 2c-10-67-22-154-24-181l0-2 28-36 0-10c-9-5-38-14-86-16z m-19 79c0-3-2-5-5-5-3 0-5 2-5 5 0 3 2 5 5 5 3 0 5-2 5-5z"/>
<glyph unicode="&#57451;" d="M507 104c-4 33-38 43-123 67l-19 5-1-2c-12-7-115-17-169-10-6 8-9 15-12 24-2 5-6 8-7 13-7 12-14 21-21 26-1 14-12 70-13 87-2 14-23 51-31 68-29 55-34 55-39 55-7-2-34-26-52-58-15-31-17-72-17-74l2-3c4-8 15-44 19-73 5-34 15-145 15-145l0-5 33 0 0 175c0 2 3 4 7 4l68-40c5-3 12-10 19-22 1-3 5-8 6-13 21-40 53-99 125-99 2 0 2 0 3 0 87 3 200 13 202 15l5 2z m-456-14c0 2 0 6 0 7l9 0 0-7z m9 164l0-143-12 0c-4 36-9 96-12 119-4 23-10 46-16 62l45-26c-4-3-5-8-5-12z m-45 55c0 10 4 41 16 63 13 26 32 43 39 50 12-18 55-94 56-110 2-13 9-54 12-76z m285-213c-47-2-75 25-95 54 53-3 141 4 164 12l13-3c69-21 104-31 113-50-26-1-120-10-195-13z"/>
<glyph unicode="&#57452;" d="M399 181c-5 56 5 101 5 101 0 1 0 5-1 6 0 0-17 16-29 58-12 45 1 93 1 93 2 3 0 6-3 6l-32 16c0 10-5 39-24 46 0 0-2 0-2 0l-116 0c0 0-2 0-2 0-20-9-24-36-24-46l-30-14c-4-2-5-5-4-8 0 0 14-50 2-93-2-6-3-11-5-17-10-29-24-39-24-41-2-1-3-3-2-6 0 0 10-45 5-101-5-58-17-118-17-118 0-2 0-3 2-5 2-2 49-53 159-53 109 0 155 51 158 53 2 2 2 3 2 5-3 0-14 62-19 118z m-10-22c4-24 7-46 9-65-16-2-60-5-101-5l0 126 49 0z m-61 297l0-4c0-7 0-29-4-32-1-2-5-4-8-5-7-4-14-9-22-14 10 39 3 77-2 94l20 0c12-7 16-31 16-39z m-72-94c-3 8-10 17-17 24-22 46-9 95-5 109l44 0c5-14 17-62-5-109-7-7-14-16-17-24z m-56 133l20 0c-5-17-13-55-2-94-8 5-17 10-22 12-3 2-8 3-8 5-4 4-4 27-4 34l0 4c0 8 4 32 16 39z m-77-336l43 56 49 0 0-126c-41 1-85 3-101 5 4 17 7 41 9 65z m-10-77c13-2 42-3 109-7 2 0 3 0 5 2 2 2 2 3 2 5l0 140c0 3-4 7-7 7l-60 0c-2 0-3-2-5-2l-31-41c5 50-1 87-5 99 5 2 16 15 24 39 2 5 3 12 7 19 10 39 3 80 0 94l20 8c0-17 0-30 7-37 2-2 5-4 12-7 19-10 53-27 56-53 0-2 0-2 0-3l0-28c0-1 2-5 4-5l0-295c-85 2-130 38-140 46 0 5 0 10 2 19z m150-65l0 295c2 2 3 4 3 5l0 28c0 1 0 1 0 3 4 27 39 46 57 56 6 4 10 6 12 7 5 7 6 19 6 36l21-8c-4-16-12-55 0-94 10-38 24-55 31-62-2-12-9-49-6-99l-30 41c-2 2-4 2-5 2l-62 0c-3 0-7-3-7-7l0-140c0-1 0-3 2-5 2-2 3-2 5-2 67 2 96 6 109 7 2-8 2-13 4-17-10-8-55-44-140-46z"/>
<glyph unicode="&#57453;" d="M263 14l0 186c73 12 73 210 73 218 0 29-3 60-7 87l0 5-146 0 0-5c-6-27-7-56-7-87 0-5 0-157 48-205 8-6 17-12 25-13l0-185c-34 0-60-3-60-6 0-4 31-7 69-9 37 0 68 3 68 7 0 3-27 7-63 7z m-75 404c0 29 1 55 7 82l124-2c4-25 5-53 5-80 0-80-19-206-68-206-9 0-17 3-24 10-36 36-44 143-44 196z"/>
<glyph unicode="&#57454;" d="M372 478l3 3-3 5c0 2-19 23-48 26l-3 0-2-3c-5-7-27-16-63-16-36 0-58 9-63 16l-5 1-4 0c-29-1-47-24-47-24l-6-5 6-3c0 0 8-9 15-31 7-20-2-36-2-36l-2-3 24-89-1-17c0-2-11-26-16-66-5-43 24-221 26-227l2-6 146 0 2 6c2 6 31 184 26 227-5 40-16 66-16 66l-3 19 24 89-4 1c0 0-10 16-1 36 8 22 15 31 15 31z m-118 0c9 0 28 2 43 5-14-14-31-27-44-27-14 0-31 13-45 27 19-3 38-5 46-5z m-70-154l33 0c-10-5-24-12-33-19l2 14z m157-90c5-36-18-188-24-219l-124 0c-5 31-29 181-24 219 3 25 8 44 12 54 3 2 10 7 19 12-5-12-11-25-11-37l14 0c0 19 14 42 17 49 2 2 4 2 5 2 9 3 22 7 33 9 10-2 24-6 32-9 2 0 4-2 5-2 4-7 17-30 17-49l14 0c0 12-5 27-10 37 8-5 15-8 19-12-2-10 3-29 6-54z m-17 90l0-5 2-14c-10 7-24 14-32 19z m22 82l-18-68-19 0 5 15-12 4-7-19-80 0-7 19-12-4 5-15-18 0-19 68c3 7 10 24 2 45-7 17-12 25-18 30 6 5 18 14 33 16 10-12 43-53 73-53 31 0 63 42 74 54 15-1 27-10 32-15-3-5-8-15-15-31-9-22-2-39 1-46z"/>
<glyph unicode="&#57455;" d="M444 125l-132 132 132 130c5 5 5 14 0 19l-37 38c-3 2-7 4-10 4-4 0-7-2-10-4l-131-130-131 130c-3 2-6 4-10 4-4 0-7-2-10-4l-37-38c-5-5-5-14 0-20l132-130-132-131c-2-3-4-6-4-10 0-4 2-7 4-10l38-37c3-3 6-4 10-4 3 0 7 1 9 4l131 131 131-131c2-3 6-4 10-4 3 0 7 1 9 4l38 37c2 3 4 6 4 10 0 4-2 7-4 10z"/>
<glyph unicode="&#57456;" d="M510 285l-46 99 0 2-177 71-236-114-51-73 51 3 0-164 179-70 14 0 222 113 0 106z m-223 15l0 144 160-65z m-58-247l-166 66 0 205 166-65z m222 109l-209-107 0 204 36-95 173 90z m-270-29l-70 29 0 87 70-29z m2-3c-2 0-2 0 0 0l-72 27c-2 0-3 2-3 3l0 87c0 2 0 4 1 4 2 0 4 2 4 0l70-27c1 0 3-2 3-4l0-87c0-2 0-3-2-3-1 0-1 0-1 0z m-67 34l61-24 0 78-61 24z"/>
<glyph unicode="&#57457;" d="M510 273l-47 104 0 2-190 77-220-92-53-79 53 5 0-174 189-75 14 0 205 90 0 118z m-237 31l0 136 171-70z m-31-248l-175 70 0 217 175-70z m205 86l-191-86 0 217 39-102 152 71z m-256 0l-75 29 0 92 75-29z m0-5c0 0 0 1 0 0l-77 29c-1 0-3 1-3 3l0 92c0 2 0 4 2 4 1 0 3 1 3 0l75-29c2 0 4-2 4-4l0-92c0-2 0-3-2-3 0 1 0 0-2 0z m-70 37l67-26 0 82-67 26z"/>
<glyph unicode="&#57458;" d="M512 292l-44 95 0 4-174 70-245-126-49-72 48 5 0-188 174-68 14 0 230 125 0 131z m-232 2l14 153 157-63z m-56-268l-163 63 0 227 163-63z m230 117l-217-119 0 229 36-94 181 102z m-277-41l-69 28 0 112 69-27z m0-3c-1 0-1 0 0 0l-69 27c-2 0-4 2-4 4l0 112c0 2 0 4 2 4 2 0 2 1 3 0l68-28c2 0 4-1 4-3l0-113c0-1 0-3-2-3 0 0-2 0-2 0z m-64 34l61-24 0 104-61 24z"/>
<glyph unicode="&#57459;" d="M507 247l-50 106 0 2-192 78-207-78-53-79 53 6 0-156 193-75 14 0 192 75 0 101z m-241 33l0 138 173-70z m-17-215l-177 70 0 200 177-70z m193 70l-177-70 0 200 39-105 138 60z m-244 17l-75 29 0 73 75-30z m0-5l-77 30c-2 0-3 2-3 4l0 73c0 2 0 4 1 4 2 0 4 1 4 0l75-31c2 0 3-2 3-3l0-74c0-2 0-3-1-3 0 0 0 0-2 0z m-70 37l67-25 0 63-67 25z"/>
<glyph unicode="&#57460;" d="M288 309c0 3-3 7-6 7-26 0-52-4-74-12-3-2-5-5-3-9 2-3 3-3 7-3 0 0 1 0 1 0 23 8 46 12 70 12 2-2 5 1 5 5z m215-82l-35 0c-7 29-24 56-52 78l9 50c0 2 0 3-2 5-1 2-1 2-5 2-2 0-22 0-41-10-7-4-13-11-19-16-23 9-51 14-78 14-2 0-4 0-5 0 0 2 0 3 0 5 0 22-17 39-39 39-23 0-40-17-40-39 0-7 2-14 5-19-46-17-82-49-99-90-8 3-13 7-18 12 15 7 27 20 29 34 1 10-4 19-12 25-12 9-22 6-28 4-10-7-17-22-13-39 0-6 1-11 5-16-12-1-31-1-51 16-4 1-7 1-9 0-2-4-2-7 0-9 21-17 44-22 67-17 7-9 15-15 27-19-5-13-7-29-7-44 0-46 24-89 63-118-3-5-5-10-5-15l0-29c0-16 12-28 27-28l43 0c16 0 27 12 27 28l0 3c12-2 26-3 40-3 13 0 25 1 39 3l0-5c0-15 12-27 27-27l43 0c15 0 27 12 27 27l0 29c0 5-1 10-3 14 27 20 46 46 56 76l38 9c3 0 5 3 5 7l0 56c-10 4-12 7-16 7z m-426 43c-4 5-4 12-4 13-1 14 4 24 9 28 2 0 2 1 3 1 2 0 5-1 9-3 5-4 7-9 7-14-2-10-12-20-24-25z m153-241c0-7-6-14-13-14l-43 0c-7 0-14 7-14 14l0 29c0 2 0 5 2 7 21-14 43-24 68-29z m173 0c0-7-7-14-14-14l-43 0c-6 0-13 7-13 14l0 5c25 5 48 15 68 29 0-2 2-3 2-5z m94 138l-36-7c-2 0-4-1-5-5-17-66-89-112-174-112-99 0-180 66-180 148 0 62 45 113 108 135 7-7 15-10 26-10 15 0 29 8 35 22 4 0 7 0 11 0 23 0 47-3 70-12-4-7-7-12-7-12l12-5c3 7 13 26 27 32 10 5 20 7 27 7l-8-46c0-2 0-5 1-7 28-22 45-49 52-78 0-4 3-5 7-5l34 0z m-176 304c0-22-18-39-39-39-22 0-40 17-40 39 0 22 18 39 40 39 21 0 39-17 39-39z m-38-273l0 22c4-2 7-5 7-8l15 1c-1 5-3 11-6 14-4 3-9 5-16 7l0 5-8 0 0-5c-7 0-12-4-16-7-3-5-5-10-5-15 0-7 2-12 5-16 4-5 9-7 17-10l0-24c-1 2-3 4-5 5-1 2-3 5-3 9l-17-5c2-7 3-14 8-17 6-4 11-7 16-7l0-10 8 0 0 10c7 1 14 3 17 8 4 5 7 11 7 17 0 7-2 12-5 16-3 3-8 7-19 10z m-7 2c-1 1-5 1-5 3-1 2-1 4-1 5 0 2 0 4 1 7 2 2 4 3 5 3z m16-36c-2-2-4-4-7-4l0 23c3-2 5-2 7-6 2-1 2-3 2-6 0-4 0-5-2-7z"/>
<glyph unicode="&#57461;" d="M451 302l-188 0 0 82-14 0 0-82-188 0c-27 0-49-22-49-49l0-248 486 0 0 248c2 27-20 49-47 49z m-390-14l388 0c20 0 36-17 36-35l0-50c-17 2-26 10-38 19-12 10-25 22-51 22-26 0-39-12-51-22-12-10-22-19-43-19-20 0-31 9-43 19-12 10-25 22-51 22-25 0-39-12-51-22-12-10-22-19-43-19-20 0-30 9-42 19-11 10-24 20-45 22l0 9c-1 20 16 35 34 35z m-35-271l0 213c17-1 25-10 37-18 12-11 26-23 51-23 26 0 40 12 52 23 11 10 22 18 42 18 21 0 31-8 43-18 12-11 25-23 51-23 26 0 39 12 51 23 12 10 22 18 43 18 20 0 31-8 43-18 10-11 24-21 44-23l0-172z m194 430c0 21 36 63 36 63 0 0 36-42 36-63 0-20-16-36-36-36-20 0-36 17-36 36z"/>
<glyph unicode="&#57462;" d="M304 26l-10 0c-33 0-58-4-58-7 0-4 29-7 63-7 36 0 63 3 63 7 2 3-26 7-58 7z m188 324c0 2 0 2 0 0 0 17-9 32-21 43-10 11-26 17-41 17-2 0-3 0-3 0 0 0-2 0-2 0 0 0-2 0-2 0-15-2-29-9-39-19l-3-5 37-34-234 0c0 0-1 1-1 1l-9 132c2 3 3 5 3 8 0 9-6 16-15 16l-51 0c-9 0-15-7-15-16 0-3 1-7 3-10l-10-130c-4-3-7-8-12-12-9-10-21-22-22-37l0-256c0-24 20-45 42-45 0 0 4 0 36 0 9 0 36 0 38 0 24 0 44 21 44 45l0 234c10-6 21-9 31-12l1 0 0-4c9-34 16-65 47-70l0-169 13 0 0 169c31 4 39 36 46 70l0 4 2 0c38 15 75 30 84 61l30-27 5 5c12 10 18 26 18 41z m-289-302c0-17-14-33-32-33-2 0-17 0-38 0-20 0-31 0-34 0-17 0-32 16-32 33l0 252c0 12 10 23 18 33 5 5 11 10 14 15l12 142-3 2c0 0-2 1-2 1 0 2 2 2 2 2l51 0c1 0 1-2 1-2 0-1 0-1-1-1l0-2 8-140-8 0 0-7c0-27 18-43 42-56z m149 234l-9-4-2-10c-10-39-15-60-41-60-24 0-30 22-41 60l-1 10-7 4c-12 5-24 10-34 15-5 2-9 5-14 7-15 8-27 20-29 36l256 0c-5-29-41-45-78-58z m116 97c5-7 10-15 10-24l-33-2z m-11 8l-22-23-3 32c10 0 19-3 25-9z m-58-1c7 5 14 8 21 10l3-31z m72-65l-24 22 31 0c0-8-4-15-7-22z"/>
<glyph unicode="&#57463;" d="M445 193c-13 0-25 8-25 17l-14 0c0-9-12-17-24-17 4 10 4 20 5 29 0 73-58 131-131 131-73 0-131-59-131-131 0-10 1-21 3-29-14 0-26 8-26 17l-6 0c0-9-12-17-26-17-14 0-26 8-26 17l-13 0c0-15 17-29 37-29 12 0 24 5 31 14 7-9 17-14 31-14 12 0 24 5 30 14 7-9 17-14 31-14 12 0 24 5 31 14 7-9 17-14 31-14 13 0 25 5 32 15 7-8 19-15 32-15 12 0 24 5 31 14 7-9 19-14 31-14 12 0 24 5 31 14 6-9 17-14 30-14 21 0 38 12 38 29l-7 0c0-9-12-17-26-17z m-90 17l-14 0c0-9-12-17-25-17-14 0-26 8-26 17l-10 0c0-2 0-5 2-7-4-5-14-10-24-10-14 0-26 8-26 17l-14 0c0-9-11-17-25-17-14 0-26 8-26 17l-13 0c0-5-6-12-14-15-2 10-3 18-3 27 0 65 52 118 117 118 65 0 118-53 118-118 0-9-2-19-3-27-9 3-14 10-14 15z m90-85c-13 0-25 8-25 17l-14 0c0-9-12-17-25-17-14 0-26 8-26 17l-14 0c0-9-12-17-25-17-14 0-26 8-26 17l-10 0c0-2 0-5 2-7-4-5-14-10-24-10-14 0-26 8-26 17l-14 0c0-9-11-17-25-17-14 0-26 8-26 17l-13 0c0-9-12-17-26-17-14 0-26 8-26 17l-6 0c0-9-12-17-26-17-14 0-26 8-26 17l-13 0c0-16 17-29 37-29 12 0 24 5 31 13 7-8 17-13 31-13 12 0 24 5 30 13 7-8 17-13 31-13 12 0 24 5 31 13 7-8 17-13 31-13 13 0 25 5 32 15 7-9 19-15 32-15 12 0 24 5 31 13 7-8 19-13 31-13 12 0 24 5 31 13 6-8 17-13 30-13 21 0 38 12 38 29l-7 0c0-9-12-17-26-17z m0-69c-13 0-25 9-25 17l-14 0c0-8-12-17-25-17-14 0-26 9-26 17l-14 0c0-8-12-17-25-17-14 0-26 9-26 17l-10 0c0-1 0-5 2-6-4-6-14-11-24-11-14 0-26 9-26 17l-14 0c0-8-11-17-25-17-14 0-26 9-26 17l-13 0c0-8-12-17-26-17-14 0-26 9-26 17l-6 0c0-8-12-17-26-17-14 0-26 9-26 17l-13 0c0-15 17-29 37-29 12 0 24 5 31 14 7-9 17-14 31-14 12 0 24 5 30 14 7-9 17-14 31-14 12 0 24 5 31 14 7-9 17-14 31-14 13 0 25 7 32 16 7-9 19-16 32-16 12 0 24 5 31 14 7-9 19-14 31-14 12 0 24 5 31 14 6-9 17-14 30-14 21 0 38 14 38 29l-7 0c0-8-12-17-26-17z m-198 436l14 0 0-118-14 0z m-222-70l99-99-9-9-99 99z m462 3l10-9-102-103-10 10z m-335 17l34-82-11-4-34 82z m359-157l-80-34-6 13 80 34z m-503 3l72-27-5-12-71 28z m346 160l13-5-35-85-13 5z"/>
<glyph unicode="&#57464;" d="M500 345c-26 7-94 27-109 39-7 7-9 22-9 36 0 17-1 34-13 41-21 12-111 46-169 39-2 0-2 0-4-2-3 2-8 5-12 5-53 16-158-107-174-157-12-42 5-85 43-105-5-14-9-24-10-29l-24-46 3-4c0-2 29-32 97-66 48-24 98-29 123-31-5-7-8-16-8-26 0-19 10-34 22-34 12 0 24 15 24 33 0 11-5 23-12 29l-5 46c10 29 37 104 54 121 11 10 33 5 58 0 23-5 45-10 65-7 48 9 63 104 63 108l2 5z m-466-178l15 28c12-12 48-41 94-58 50-19 94-26 108-28l3-32c-22 0-77 3-129 29-53 27-82 53-91 61z m405 75c-19-3-40 2-60 7-27 7-53 12-70-3-22-21-50-103-58-123-14 2-58 7-104 25-48 19-82 50-94 59 3 8 7 18 10 29 4-2 5-2 9-4 53-15 121 10 135 60 13 43 32 152 1 196 55 4 135-27 154-37 7-4 7-18 8-31 0-16 2-34 14-45 17-15 87-35 109-40-8-30-25-88-54-93z"/>
<glyph unicode="&#57465;" d="M176 335c5 0 8 5 8 10l0 153c0 5-3 11-8 11l-127 0c-5 0-8-6-8-11l0-153c0-5 3-10 8-10l57 0 0-335 13 0 0 335z m-123 160l119 0 0-149-119 0z m384-372c-15 0-27-12-27-27 0-16 12-28 27-28 15 0 27 12 27 28 0 15-13 27-27 27z m0-41c-9 0-14 7-14 14 0 6 7 13 14 13 7 0 14-7 14-13 0-7-7-14-14-14z m-201 43c-16 0-28-12-28-28 0-15 12-27 28-27 15 0 27 12 27 27 0 16-12 28-27 28z m0-41c-9 0-14 6-14 13 0 9 7 14 14 14 6 0 13-7 13-14 2-7-5-13-13-13z m271 13c0 31-24 55-51 55l-7 0c5 20 12 63-4 77-20 24-83 32-134 29-21-2-69-7-84-29-15-19-9-58-3-77-28 0-52-26-52-55l0-63 43 0 0-12c0-12 9-20 21-20 11 0 20 8 20 20l0 12 159 0 0-12c0-12 8-20 20-20 12 0 21 8 21 20l0 12 49 0 0 63z m-270 125c9 12 38 22 75 24 55 3 110-7 125-26 8-8 5-43-2-68l-199 0c-4 19-11 56 1 70z m256-174l-307 0 0 49c0 24 17 43 39 43l231 0c20 0 39-19 39-43l0-49z"/>
<glyph unicode="&#57466;" d="M456 36l-401 0c-23 0-41 19-41 41l0 15c0 9 6 16 15 16l449 0c8 0 15-7 15-16l0-15c4-22-15-41-37-41z m-425 58c-2 0-4-2-4-4l0-15c0-15 12-27 28-27l401 0c15 0 27 12 27 27l0 15c0 2-2 4-3 4z m454 218l-458 0c-7 0-12 5-12 12 0 2 21 161 241 161 220 0 241-157 241-159 0-7-5-14-12-14z m-229 161c-208 0-227-147-227-149l456 2c-2 7-22 147-229 147z m225-343l-450 0c-17 0-29 13-29 29 0 17 13 30 29 30l449 0c17 0 29-13 29-29 1-17-12-30-28-30z m-450 47c-9 0-17-6-17-17 0-10 6-17 17-17l449 0c8 0 17 7 17 17 0 11-7 17-17 17z m216 88c0-6-5-11-10-11l-215 0c-5 0-10 5-10 11l0 11c0 6 5 11 10 11l215 0c5 0 10-5 10-11z m256 0c0-6-5-11-10-11l-215 0c-5 0-10 5-10 11l0 11c0 6 5 11 10 11l215 0c5 0 10-5 10-11z m-8-60c-26 0-38 5-50 10-12 5-22 9-46 9-24 0-34-6-46-9-12-5-25-10-49-10-26 0-38 5-50 10-12 5-22 9-46 9-22 0-34-6-46-9-14-5-25-10-51-10-26 0-38 5-50 10-12 5-22 9-46 9l0 13c26 0 38-5 50-10 12-5 22-9 46-9 22 0 34 6 46 9 12 5 26 10 50 10 25 0 37-5 49-10 12-5 22-9 46-9 24 0 34 6 46 9 12 5 26 10 50 10 25 0 37-5 49-10 12-5 22-9 46-9l0-13z m-381 177c0 3-5 5-12 5-6 0-12-2-12-5 0-3 6-5 12-5 7 0 12 2 12 5z m81 38c0 3-6 5-12 5-7 0-12-2-12-5 0-3 5-5 12-5 6 0 12 2 12 5z m39-33c0 3-6 6-12 6-7 0-12-3-12-6 0-2 5-5 12-5 6 0 12 3 12 5z m48 69c0 3-6 5-12 5-7 0-12-2-12-5 0-3 5-5 12-5 6 0 12 2 12 5z m116-57c0 3-6 5-12 5-7 0-12-2-12-5 0-2 5-5 12-5 6 0 12 3 12 5z"/>
<glyph unicode="&#57467;" d="M258 26c-7 0-12 1-17 6l-190 190c-25 25-41 60-41 95 0 36 14 70 41 96 26 26 60 39 96 39 34 0 66-12 92-36l19-17 18 17c26 23 59 36 93 36 35 0 70-13 95-39 26-26 41-60 41-96 0-35-13-70-41-95l-189-190c-4-3-10-6-17-6z m-111 414c-33 0-65-12-87-36-24-23-36-54-36-87 0-32 14-63 36-87l191-189c3-3 12-3 15 0l191 189c24 24 36 55 36 87 0 33-13 64-36 87-24 24-54 36-87 36-30 0-61-12-83-32l-24-21c-2-1-7-1-9 0l-24 23c-22 20-53 30-83 30z m176-204l-43 0 0-43-43 0 0 43-42 0 0 42 42 0 0 43 43 0 0-43 43 0z"/>
<glyph unicode="&#57468;" d="M60 106l-60 169 270 94 58-169z m-43 160l50-145 245 86-49 145z m212 10l-17 50 44 15 17-49z m-2 43l9-25 20 6-9 26z m-47-150l-31 115 11 3 31-115z m-115 72l276 0 0-166-276 0z m283-173l-290 0 0 178 290 0z m-278 12l265 0 0 154-265 0z m273 137c-3 1-5 1-7 0-1-4-5-7-7-9-1-3-3-5-6-7-2-1-4-3-7-5-2-1-5-1-7-3-2 0-2 0-2 0 0 0 0 2 0 3 0 2 2 4 2 5 2 2 2 4 3 6 0 1 2 1 2 3 2 2 2 3 0 5l-2 2c0 0-1 1-3 1-2 0-2 0-4-1-1 0-3 0-6 0-4 0-5 0-9-2-3 0-5-2-8-5-2-2-4-3-7-7l-2-2c-2-3-3-5-7-8-1-4-5-5-7-7-1-2-5-3-6-5-2-2-4-2-6-2l-1 0c0 0 0 0 0 2 0 2 0 2 1 3 0 2 2 2 2 4 0 1 0 3 0 5 0 2-2 3-5 5-2 2-5 2-7 0-1 0-3-2-5-3l7 10c0 2 0 5-2 5l-1 0c-2 0-6 0-6-3l-8-26-2-2c-2-2-3-3-5-5-2-2-3-2-5-3-2 0-3 0-5 0 0 0-2 0-2 1 0 0 0 2-2 4 0 0-1 1-3 1 0 0-2 2-3 2l-4 0c-3-2-7-2-8-3-2-2-4-4-4-5 0 0 0 0-2-2-1-3-5-7-6-9-2-3-4-5-7-6-2-2-4-4-7-6-2-1-5-1-7-3l-2 0c0 0-1 2-1 3l0 2c0 0 0 0 0 2l0 2c1 3 3 5 7 8 1 4 3 7 5 10 1 4 3 7 3 9 0 3 2 7 0 8 0 4-3 4-3 6-2 0-4 1-5 0-2 0-6-2-7-6-2-1-4-5-5-6-2-4-2-6-4-9 0 0-1-3-1-7 0-3 0-5 0-8-2-2-2-4-4-5-2-4-3-6-7-7-1-2-3-4-7-5-1-2-5-2-6-4-2 0-2 0-2 0 0 0 0 2 0 4 0 1 2 3 2 5 1 1 1 3 3 5 0 2 2 2 2 3 1 2 1 4 0 5l-2 2c0 0-2 2-3 2-2 0-2 0-4-2-1 0-3 0-7 0-3 0-5 0-8-2-4 0-5-1-9-5-3-1-5-5-6-7-2-3-4-5-4-8 0-3 0-7 0-10 0-2 2-4 4-5 1-6 3-6 5-6 1 0 1 0 3 0 2 0 3 2 5 4 2 2 4 2 5 3 2 2 2 2 4 4 1-2 1-4 3-4 2-1 5-1 10 0 4 2 7 2 11 5 3 2 5 4 8 7 2 2 4 4 5 7 2-2 2-3 4-5 3-3 8-3 12-2 3 2 6 2 10 5 3 2 5 4 8 7 2 2 2 2 2 4 2-2 2-4 3-6 2-1 6-1 9 0 2 0 5 2 7 4 2 2 3 3 5 5 2 2 3 5 3 7l0 2 2 0c4 0 5 0 9 0l1 0 0-2c0-2 0-5 2-5l2 0c1 0 1 0 3 0 2 0 2 1 2 1l0 2c2 2 2 4 3 5 2 2 4 5 5 7 2 2 4 3 6 5l1 2c0-2-1-4-1-4 0-1 0-3 0-5 1-3 3-5 5-6 1 0 5 0 8 0 2 0 5 1 9 3 3 2 5 3 8 5 2 2 4 3 5 5 0-2 2-3 4-3 1-2 5-2 7 0 1 0 3 1 5 3 1 2 3 4 5 4 2 1 2 1 3 3 2-2 2-3 4-3 1-2 5-2 10 0 3 1 7 1 10 5 4 1 5 3 9 7 1 1 5 5 7 8 1 4 5 7 6 9 0 1 2 1 0 3 4 0 2 0 2 2z m-44-16c-2-1-4-3-4-5-1-1-3-3-5-5-2-2-3-3-5-3-2 0-2-2-2-2 0 2 0 2 0 3 0 2 2 4 2 6 2 1 3 3 5 5 2 1 4 1 5 3 0-2 2-2 4-2z m-116-44c0 2 0 2 0 3 0 2 1 4 1 6 2 1 2 3 4 3 1 2 3 2 5 2 0-2 0-4 0-5 0-2-2-4-2-6-2-1-2-3-3-3-4 0-4 0-5 0 0-2 0-2 0 0z m-81-10c-1-2-3-4-3-5-2-2-3-4-5-5-2-2-4-4-5-4-2 0-2-2-2-2 0 2 0 2 0 4 0 2 2 3 2 5 1 2 3 3 5 5 2 2 3 2 5 3 0-1 2-1 3-1z m212-58c-10 0-17 3-22 8-5-5-14-8-22-8-11 0-17 3-23 8-5-5-13-8-22-8-10 0-17 3-22 8-5-5-14-8-22-8-10 0-17 3-22 8-5-5-14-8-22-8-9 0-18 3-23 8-12-5-18-8-29-8-17 0-27 10-27 24 0 3 3 6 7 6 3 0 7-3 7-6 0-5 7-11 17-11 10 0 17 6 17 11-4 3 0 6 3 6 4 0 7-3 7-6 0-5 7-11 17-11 10 0 17 6 17 11 0 3 4 6 7 6 3 0 7-3 7-6 0-5 7-11 17-11 8 0 17 6 17 11 0 3 3 6 7 6 3 0 7-3 7-6 0-5 6-11 17-11 8 0 17 6 17 11 0 3 3 6 7 6 3 0 6-3 6-6 0-5 7-11 17-11 9 0 18 6 18 11 0 3 3 6 6 6 4 0 7-3 7-6 0-5 7-11 17-11 9 0 17 6 17 11 0 3 4 6 7 6 4 0 7-3 7-6-12-14-24-24-41-24z m131 246c-13 13-29 20-39 23l106 0c-7 9-29 19-56 19-26 0-48-10-57-17l72 87c-10 0-32-10-51-32-14-17-21-36-22-48-2 12-9 31-23 48-17 20-40 32-51 32l72-87c-7 7-29 17-56 17-28 0-52-10-57-19l104 0c-10-3-25-10-39-23-17-18-25-40-24-48l67 66 0-285 13 0 0 285 67-66c0 8-7 30-26 48z"/>
<glyph unicode="&#57469;" d="M51 145l-49 149 268 92 42-123-13-5-38 111-244-84 46-135z m176 150l-17 50 44 15 17-49z m-2 41l9-25 20 6-8 26z m-64-31l13-44-13-4-13 44z m177-216l-287 0 0 177 287 0z m-273 12l259 0 0 152-259 0z m268 133c-4 2-5 2-5 0-2-4-4-7-7-9-2-3-4-5-7-7-2-1-3-3-7-5-2-1-5-3-7-3-1 0-1 0-3 0 0 2 0 2 0 3 0 2 2 4 2 5l3 4c0 2 2 2 2 3 1 2 1 4 0 4l-2 1c0 0-2 2-2 2 0 0-1 0-1-2-2 0-5 0-7 0-4 0-5 0-7-1-3 0-5-2-9-4-1-1-3-3-5-5l-1-2c-2-3-4-5-7-8-2-3-5-5-7-7-2-2-5-3-7-5-2-2-3-2-5-3 0 0-2 0-2 0 0 0 0 0-1 0 0 0 0 1 0 1 0 2 0 2 1 4 0 1 2 1 2 3 0 2 0 4 0 5 0 2-2 4-3 4-2 0-4 1-7 0-2 0-4-2-5-4-2 0-2-1-4-1l7 18c0 2 0 4-2 4l-1 0c-2 0-4 0-4-2l-8-26-2-1c-2-2-3-4-5-5-2-2-3-2-5-4-2 0-4 0-5 0-2 0-2 2-4 4 0 0 0 1-1 1 0 0-2 2-4 2 0 0-2 0-2 0l-1 0c0 0-2 0-2 0-3 0-5-2-9-3-1-2-3-4-3-4-2-3-3-7-7-8-1-4-3-6-7-7-5-4-6-5-8-7-2-2-5-2-7-3-2 0-3 0-3 0-2 1-2 1-2 5 0 0 0 1 0 1 0 0 0 2 0 2l2 2c1 3 3 5 5 8 1 4 3 7 5 11 2 3 2 6 3 8 0 4 0 5 0 9 0 1-1 3-3 3-2 0-4 0-5 0-2 0-4-2-5-3-4-2-5-4-7-7-2-4-2-5-4-9-1-3-1-7-1-10 0-3 0-7 0-10-2-2-2-4-4-5-1-4-3-5-7-7-1-2-5-4-6-5-2-2-5-4-7-4-2 0-2 0-4 0 0 2 0 2 0 4 0 1 2 3 2 5l0 2c0 1 2 1 2 3 0 2 2 2 2 3 1 2 1 4 0 4l-2 1c0 0-2 2-2 2 0 0-2 0-2-2-1 0-5 0-6 0-4 0-6 0-7-1-4 0-5-2-9-4-1-1-5-3-7-6-1-2-3-6-3-9 0-3 0-7 0-9 0-1 2-3 3-5 2 0 2-1 4-1 2 0 2 0 3 0 2 0 4 1 5 1 2 2 4 2 5 4 2 1 4 3 6 5 0-2 1-4 3-5 2-2 5-2 9 0 3 1 6 1 8 3 3 4 7 7 9 9 1 1 5 5 6 8 2-3 2-5 6-7 3-1 6-3 10-1 3 1 7 1 8 3 4 2 5 4 9 7 2 2 2 3 3 3 2-3 2-5 4-5 1-1 5-1 6 0 2 0 4 2 6 4 1 1 3 3 5 5 1 1 3 5 3 7 0 1 0 1 2 3 0 0 2 0 3 0 2 0 5 0 9 0 2 0 3 2 3 2l-1-4c0-1 0-3 1-3l2 0c0 0 2 0 2 0 0 0 1 2 1 2l0 1c2 2 2 4 4 5 1 2 3 6 5 7 2 2 3 4 5 5 2 2 3 2 5 4l-2-4c0-1-1-3-1-3 0-2 0-3 0-5 1-4 3-5 5-5 2 0 5 0 7 0 1 0 5 1 6 3 2 2 6 4 9 5 2 2 3 4 7 5 0-1 2-3 3-5 2-1 4-1 7 0 2 0 3 2 5 2 2 2 4 2 5 3 2 2 4 4 5 6 0-2 2-4 4-6 2 0 2 0 3 0 2 0 4 0 5 0 4 2 7 2 9 4 3 2 5 3 8 7 2 1 6 5 7 8 2 4 5 5 7 9 0 0 0 1 0 1 2 4 2 4 2 4z m-41-12c-2-2-4-4-5-5-2-2-4-4-5-5-2-2-4-4-6-5-1-2-3-4-3-4 0 2 0 4 0 5 0 2 2 4 2 5 1 2 3 4 5 5 2 2 3 2 5 4 2 0 3 0 7 0 0 2 0 2 0 2 0-2 0-2 0-2z m-116-48c0 0-2 0 0 0-2 0-2 0 0 0-2 0-2 0-2 2 0 1 0 3 0 3 0 2 2 4 2 5 1 2 1 4 3 5 2 2 4 2 5 4 0 0 0 0 0-2 0-2 0-3 0-5 0-2-1-3-3-5-2-2-2-4-4-5 0 0 0 0-1-2z m-38 17c0 4 2 5 2 9 2 3 2 5 3 7 0 0 2 1 2 1 0 0 0-1 0-3 0-2-2-5-3-7 0-2-2-5-4-7z m-41-24c-1-1-3-3-5-5-2-2-3-3-5-5-2-3-3-5-5-5-2-2-3-2-3-2 0 2 0 4 0 5 0 2 1 4 1 5 2 2 4 4 5 6 2 1 4 1 5 3 2 0 4 0 6 2 0 0 0 0 1 0 0-2 0-4 0-4z m212-56c-10 0-19 3-22 10-5-5-14-10-22-10-9 0-19 3-23 10-5-5-13-10-22-10-8 0-19 3-22 10-5-5-14-10-22-10-9 0-22 5-28 10-5-5-13-10-22-10-8 0-18 3-22 10-5-5-14-10-22-10-15 0-27 10-27 20 0 2 1 4 3 4 2 0 3-2 3-4 0-6 9-12 19-12 10 0 19 6 19 12 0 2 2 4 3 4 2 0 4-2 4-4 0-6 8-12 19-12 10 0 18 6 18 12 0 2 2 4 4 4 1 0 7 0 7-2 0-7 8-12 18-12 11 0 19 5 19 12 0 2 2 4 4 4 1 0 3-2 3-4 0-7 9-12 19-12 10 0 19 5 19 12 0 2 1 4 3 4 2 0 3-2 3-4 0-7 9-12 19-12 10 0 19 5 19 12 0 2 2 4 3 4 2 0 4-2 4-4 0-7 8-12 18-12 11 0 19 5 19 12 0 2 2 4 4 4 1 0 3-2 3-4 5-12-7-22-22-22z m80 266l14 0 0-281-14 0z m63 17c-27 0-49-10-56-19l113 0c-7 7-29 19-57 19z m-112 0c27 0 49-10 56-19l-113 0c7 7 29 19 57 19z m104-42c-17 17-40 25-48 23l72-71c1 10-7 31-24 48z m-96 0c17 17 39 25 48 23l-72-71c0 10 7 31 24 48z m26 78c19-20 24-46 22-55l-72 88c11 0 33-12 50-33z m44 0c-17-20-24-46-22-55l72 88c-11 0-33-12-50-33z"/>
<glyph unicode="&#57470;" d="M256 512c-141 0-256-115-256-256 0-141 115-256 256-256 141 0 256 115 256 256 0 141-115 256-256 256z m0-495c-132 0-239 107-239 239 0 132 107 239 239 239 132 0 239-107 239-239 0-132-107-239-239-239z m162 230c-5 0-8-3-8-8 0-85-71-157-154-157-83 0-154 72-154 157 0 5-3 8-8 8-5 0-9-3-9-8 0-95 78-174 171-174 93 0 171 79 171 174 0 5-4 8-9 8z m-307 43c5 0 8 4 8 9 0 19 22 35 40 35 20 0 37-17 37-35 0-5 4-9 9-9 5 0 8 4 8 9 0 27-25 52-54 52-27 0-57-23-57-52 0-5 4-9 9-9z m196 0c5 0 9 4 9 9 0 18 17 35 37 35 18 0 40-16 40-35 0-5 3-9 8-9 5 0 9 4 9 9 0 29-30 52-57 52-29 0-54-25-54-52 0-5 3-9 8-9z"/>
<glyph unicode="&#57473;" d="M98 141c-23 0-43-19-43-43 0-23 20-43 43-43 24 0 43 20 43 43 0 24-19 43-43 43z m0-68c-14 0-25 11-25 25 0 14 11 26 25 26 14 0 26-12 26-26 0-14-12-25-26-25z m-60-52c0-9-8-17-17-17-9 0-17 8-17 17 0 9 8 17 17 17 9 0 17-8 17-17z m310 495c-60 0-116-31-148-82-20 12-43 19-67 19-71 0-129-59-129-132 0-73 58-132 129-132 1 0 1 0 1 0 24-33 62-53 103-53 29 0 57 10 79 28 11-2 21-3 32-3 94 0 168 77 168 176 0 101-74 179-168 179z m0-338c-11 0-22 1-32 3l-4 1-4-3c-20-17-45-26-71-26-37 0-71 19-92 50l-3 3-7 0c0 0-1 0-2 0-61 0-112 52-112 115 0 63 51 115 112 115 24 0 46-8 65-21l8-6 5 8c28 51 80 82 137 82 85 0 151-71 151-162 0-89-66-159-151-159z m-198 148c-10 0-19-9-19-19 0-11 9-19 19-19 11 0 19 8 19 19 0 10-8 19-19 19z m-2-19c0 1 1 2 2 2 1 0 2-1 2-2 0-2-4-2-4 0z m108 19c-11 0-19-9-19-19 0-11 8-19 19-19 10 0 19 8 19 19 0 10-9 19-19 19z m-2-19c0 1 1 2 2 2 1 0 2-1 2-2 0-2-4-2-4 0z m108 19c-11 0-19-9-19-19 0-11 8-19 19-19 10 0 19 8 19 19 0 10-9 19-19 19z m-2-19c0 1 1 2 2 2 1 0 2-1 2-2 0-2-4-2-4 0z"/>
<glyph unicode="&#57474;" d="M498 355l-241-250-241 250c-4 4-9 4-13 0-3-3-3-8 0-12l248-256c1-1 4-2 6-2 2 0 4 1 6 2l247 256c4 4 4 9 0 12-3 4-9 4-12 0z"/>
<glyph unicode="&#57363;" d="M256 512c-141 0-256-115-256-256 0-141 115-256 256-256 141 0 256 115 256 256 0 141-115 256-256 256z m0-495c-132 0-239 107-239 239 0 132 107 239 239 239 132 0 239-107 239-239 0-132-107-239-239-239z m161 222l-322 0c-5 0-9-4-9-9 0-91 76-165 170-165 94 0 170 74 170 165 0 5-4 9-9 9z m-161-157c-80 0-148 63-153 140l306 0c-5-77-73-140-153-140z m-97 208c30 0 54 24 54 51 0 5-3 9-8 9-5 0-9-4-9-9 0-18-17-33-37-33-18 0-31 13-31 33 0 5-4 9-9 9-4 0-8-4-8-9 0-29 20-51 48-51z m194 0c28 0 48 22 48 51 0 5-4 9-8 9-5 0-9-4-9-9 0-20-13-33-31-33-20 0-37 15-37 33 0 5-4 9-9 9-5 0-8-4-8-9 0-27 24-51 54-51z"/>
<glyph unicode="&#57364;" d="M256 512c-141 0-256-115-256-256 0-141 115-256 256-256 141 0 256 115 256 256 0 141-115 256-256 256z m0-495c-132 0-239 107-239 239 0 132 107 239 239 239 132 0 239-107 239-239 0-132-107-239-239-239z m162 230c-5 0-8-3-8-8 0-85-71-157-154-157-83 0-154 72-154 157 0 5-3 8-8 8-5 0-9-3-9-8 0-95 78-174 171-174 93 0 171 79 171 174 0 5-4 8-9 8z m-307 43c5 0 8 4 8 9 0 19 22 35 40 35 20 0 37-17 37-35 0-5 4-9 9-9 5 0 8 4 8 9 0 27-25 52-54 52-27 0-57-23-57-52 0-5 4-9 9-9z m196 0c5 0 9 4 9 9 0 18 17 35 37 35 18 0 40-16 40-35 0-5 3-9 8-9 5 0 9 4 9 9 0 29-30 52-57 52-29 0-54-25-54-52 0-5 3-9 8-9z"/>
<glyph unicode="&#57365;" d="M256 512c-141 0-256-115-256-256 0-141 115-256 256-256 141 0 256 115 256 256 0 141-115 256-256 256z m0-495c-132 0-239 107-239 239 0 132 107 239 239 239 132 0 239-107 239-239 0-132-107-239-239-239z m162 230c-5 0-8-3-8-8 0-85-71-157-154-157-83 0-154 72-154 157 0 5-3 8-8 8-5 0-9-3-9-8 0-95 78-174 171-174 93 0 171 79 171 174 0 5-4 8-9 8z m-65 43c27 0 57 21 57 51 0 5-4 9-9 9-5 0-8-4-8-9 0-19-21-33-40-33-20 0-37 15-37 33 0 5-4 9-9 9-5 0-8-4-8-9 0-27 24-51 54-51z m-194 0c30 0 54 24 54 51 0 5-3 9-8 9-5 0-9-4-9-9 0-18-17-33-37-33-19 0-40 14-40 33 0 5-3 9-8 9-5 0-9-4-9-9 0-30 30-51 57-51z"/>
<glyph unicode="&#57471;" d="M256 512c-141 0-256-115-256-256 0-141 115-256 256-256 141 0 256 115 256 256 0 141-115 256-256 256z m0-495c-132 0-239 107-239 239 0 132 107 239 239 239 132 0 239-107 239-239 0-132-107-239-239-239z m161 222l-322 0c-5 0-9-4-9-9 0-91 76-165 170-165 94 0 170 74 170 165 0 5-4 9-9 9z m-161-157c-80 0-148 63-153 140l306 0c-5-77-73-140-153-140z m-145 208c4 0 8 4 8 9 0 19 15 34 34 34 19 0 34-15 34-34 0-5 4-9 9-9 5 0 8 4 8 9 0 28-22 51-51 51-28 0-51-23-51-51 0-5 4-9 9-9z m204 0c5 0 9 4 9 9 0 19 15 34 34 34 19 0 34-15 34-34 0-5 4-9 9-9 4 0 8 4 8 9 0 28-22 51-51 51-29 0-51-23-51-51 0-5 4-9 8-9z"/>
<glyph unicode="&#57472;" d="M256 512c-141 0-256-115-256-256 0-76 33-144 86-191 1-2 3-4 5-5 45-37 102-60 165-60 63 0 120 23 165 60 2 1 4 3 5 5 53 47 86 115 86 191 0 141-115 256-256 256z m-153-439c2 84 73 157 153 157 80 0 151-73 153-157-41-35-95-56-153-56-58 0-112 21-153 56z m323 15c-10 87-85 159-170 159-85 0-160-72-170-159-42 43-69 102-69 168 0 132 107 239 239 239 132 0 239-107 239-239 0-66-27-125-69-168z m-221 262c-5 0-9-4-9-9 0-19-15-34-34-34-19 0-34 15-34 34 0 5-4 9-9 9-4 0-8-4-8-9 0-28 22-51 51-51 29 0 51 23 51 51 0 5-3 9-8 9z m188 0c-5 0-9-4-9-9 0-19-15-34-34-34-19 0-34 15-34 34 0 5-4 9-9 9-5 0-8-4-8-9 0-28 22-51 51-51 29 0 51 23 51 51 0 5-4 9-8 9z"/>
<glyph unicode="&#57475;" d="M256 512c-141 0-256-115-256-256 0-141 115-256 256-256 141 0 256 115 256 256 0 141-115 256-256 256z m0-495c-132 0-239 107-239 239 0 132 107 239 239 239 132 0 239-107 239-239 0-132-107-239-239-239z m-51 333c0 23-19 43-43 43-23 0-43-20-43-43 0-24 20-43 43-43 24 0 43 19 43 43z m-43-26c-14 0-25 12-25 26 0 14 11 25 25 25 14 0 26-11 26-25 0-14-12-26-26-26z m94-94c-42 0-77-34-77-76 0-43 35-77 77-77 42 0 77 34 77 77 0 42-35 76-77 76z m0-136c-33 0-60 27-60 60 0 33 27 59 60 59 33 0 60-26 60-59 0-33-27-60-60-60z m85 299c-23 0-42-20-42-43 0-24 19-43 42-43 24 0 43 19 43 43 0 23-19 43-43 43z m0-69c-14 0-25 12-25 26 0 14 11 25 25 25 14 0 26-11 26-25 0-14-12-26-26-26z"/>
<glyph unicode="&#57476;" d="M309 355c16-15 25-34 25-57 0-20-7-38-21-53-16-16-35-24-57-24-20 0-38 6-53 20-16 16-25 35-25 57 0 20 7 38 21 53 16 17 35 25 57 25 20 0 38-7 53-21z m-4-111c16 15 24 33 24 54 0 19-7 35-19 49-15 16-33 24-54 24-19 0-35-7-49-19-16-14-24-32-24-54 0-18 7-35 19-49 15-15 33-23 54-23 19 0 35 6 49 18z m-86 66c-6 3-10 8-10 14 0 1 1 2 3 3 1 0 2-1 2-3 0-1 1-2 1-4 3-4 6-6 12-6 1 0 2 0 4 1 5 1 7 5 7 9 0 1 1 2 3 3 1 0 2-1 2-3 0-2-1-4-1-6-4-6-8-10-15-10-3 0-5 1-8 2z m59 0c-6 3-9 8-9 14 0 1 1 2 3 3 1 0 2-1 2-3 0-1 0-2 1-3 2-5 5-7 10-7 2 0 3 0 5 1 5 1 8 5 8 9 0 1 1 2 2 3 1 0 2-1 3-3 0-2-1-5-2-7-4-6-9-9-16-9-2 0-4 1-7 2z m-69-44c13 3 27 6 40 7 11 1 22 2 32 1 8 0 17-2 23-7 2-2 6 1 3 3-6 6-15 8-23 9-11 1-22 0-33-1-15-1-29-4-43-7-3-1-2-5 1-5z"/>
<glyph unicode="&#57477;" d="M430 443c55-51 82-113 82-187 0-67-23-125-69-174-51-55-113-82-187-82-67 0-125 23-174 69-55 51-82 113-82 187 0 67 23 125 69 174 51 55 113 82 187 82 67 0 125-23 174-69z m-13-364c52 47 78 106 78 177 0 61-21 115-62 161-47 52-106 78-177 78-61 0-115-21-161-62-52-47-78-106-78-177 0-61 21-115 62-161 47-52 106-78 177-78 61 0 115 20 161 62z m-282 216c-22 10-33 25-33 46 1 5 4 8 9 9 4-1 7-4 8-9 0-4 1-8 3-12 7-14 20-21 37-21 5 0 9 1 14 2 15 6 23 16 23 31 1 5 4 8 9 9 4-1 6-4 8-9 0-7-2-14-5-21-10-20-26-30-49-30-8 0-16 2-24 5z m193 1c-19 9-29 24-29 45 1 5 3 8 8 9 5-1 8-4 9-9 0-3 1-7 2-11 6-15 18-22 35-22 5 0 9 1 14 2 17 6 26 16 26 31 1 5 3 8 8 9 5-1 8-4 9-9 0-8-2-16-7-24-11-18-28-27-50-27-8 0-16 2-25 6z m-227-145c44 10 88 18 133 23 35 3 70 6 105 3 25-2 56-6 75-24 7-7 19 4 11 11-20 20-51 25-78 28-36 4-73 2-109-2-47-5-95-13-141-24-10-2-6-18 4-15z"/>
<glyph unicode="&#57479;" d="M512 0l-512 0 0 512 512 0z m-492 20l474 0 0 472-474 0z m-15 364l494 0 0-20-494 0z m0-316l494 0 0-20-494 0z m146 281c0-8-8-15-15-15-8 0-16 7-16 15l0 63c0 7 8 15 16 15 10-3 15-8 15-15z m233 0c0-8-8-15-15-15-8 0-15 7-15 15l0 63c0 7 7 15 15 15 7 0 15-8 15-15z m-261-208l15 20c8-10 18-15 33-15 30 0 42 27 42 52 0 3 0 3 0 5-7-10-25-22-42-22-30 0-56 17-56 52 0 31 23 56 61 56 47 0 67-38 67-83 0-48-25-83-70-83-22 0-37 8-50 18z m90 85c-2 17-12 38-37 38-23 0-33-16-33-28 0-20 15-30 33-30 15 0 27 7 37 20z m48-20c0 40 20 83 65 83 45 0 66-43 66-83 0-40-21-83-66-83-45 0-65 43-65 83z m100 0c0 30-10 58-35 58-25 0-35-28-35-58 0-30 10-58 35-58 28 0 35 28 35 58z"/>
<glyph unicode="&#57480;" d="M44 509l29 0 0-509-29 0z m424-306l-424 0 0 309 418 0-132-160z m-395 29l332 0-112 120 112 131-332 0z"/>
<glyph unicode="&#57481;" d="M144 320l-96 0 0-288 416 0 0 288-96 0 0 32 128 0 0-352-480 0 0 352 128 0z m221 83l-23-22-70 70 0-291-32 0 0 291-67-70-26 22 109 109z"/>
<glyph unicode="&#57482;" d="M32 57c18-18 42-27 65-27 24 0 48 9 67 28l247 247c10 10 15 23 15 36 0 13-5 26-15 36-10 10-22 15-36 15-13 0-26-5-36-15l-179-179c-3-4-3-9 0-12 3-4 9-4 12 0l179 179c13 13 35 13 48 0 6-7 10-15 10-24 0-9-4-17-10-24l-248-247c-30-31-77-31-107-1-30 30-30 78 0 108l256 256c21 21 49 32 79 32 31 0 59-11 80-32 20-21 32-47 32-75 0-28-12-54-32-75l-185-184c-3-3-3-9 0-12 4-3 9-3 12 0l185 184c24 24 37 55 37 87 0 32-13 63-37 87-24 24-57 37-92 37-35 0-67-13-91-37l-256-256c-37-37-37-95 0-132z"/>
<glyph unicode="&#57483;" d="M249 495c63 0 109-51 109-121l0-193c0-5 4-9 9-9 5 0 8 4 8 9l0 193c0 80-53 138-126 138-74 0-130-59-130-138l0-269c0-61 41-105 97-105 55 0 91 42 91 105l0 214c0 46-22 74-58 74-37 0-61-29-61-74l0-171c0-4 4-8 8-8 5 0 9 4 9 8l0 171c0 14 3 56 44 56 36 0 41-35 41-56l0-214c0-40-19-88-74-88-46 0-79 37-79 88l0 269c0 69 48 121 112 121z"/>
<glyph unicode="&#57484;" d="M256 503c-136 0-247-111-247-247 0-136 111-247 247-247 136 0 247 111 247 247 0 136-111 247-247 247z m135-258l-126 0 0-118c0-5-4-9-9-9-5 0-9 4-9 9l0 118-114 0c-5 0-8 4-8 9 0 4 3 8 8 8l114 0 0 123c0 5 4 9 9 9 5 0 9-4 9-9l0-123 126 0c5 0 9-4 9-8 0-5-4-9-9-9z"/>
<glyph unicode="&#57485;" d="M257 0c-143 0-257 114-257 255 0 143 114 257 257 257 141 0 256-114 256-257-1-141-115-255-256-255z m0 492c-131 0-237-106-237-237 0-130 106-236 237-236 130 0 236 106 236 236-1 131-107 237-236 237z m110-347c-3 0-6 1-8 3 0 0-35 37-104 37-70 0-103-36-103-37-4-4-11-4-15-2-4 5-4 11-1 15 1 2 40 45 118 45 78 0 117-42 118-45 4-4 4-10-1-15 1 0-1-1-4-1z m-167 165c0-13-11-24-24-24-13 0-24 11-24 24 0 14 11 25 24 25 13 0 24-11 24-25z m163 0c0-13-11-24-24-24-14 0-25 11-25 24 0 14 11 25 25 25 13 0 24-11 24-25z"/>
<glyph unicode="&#57486;" d="M257 0c-143 0-257 114-257 255 0 143 114 257 257 257 141 0 256-114 256-257-1-141-115-255-256-255z m0 492c-131 0-237-106-237-237 0-130 106-236 237-236 130 0 236 106 236 236-1 131-107 237-236 237z m114-327l-220 0c-6 0-11 4-11 11 0 7 4 11 11 11l220 0c5 0 11-4 11-11 0-7-6-11-11-11z m-172 145c0-13-11-24-24-24-14 0-24 11-24 24 0 14 10 25 24 25 13 0 24-11 24-25z m162 0c0-13-10-24-24-24-13 0-24 11-24 24 0 14 11 25 24 25 14 0 24-11 24-25z"/>
<glyph unicode="&#57487;" d="M257 0c-143 0-257 114-257 255 0 143 114 257 257 257 142 0 256-114 256-257-1-141-115-255-256-255z m0 492c-131 0-237-106-237-237 0-130 106-236 237-236 130 0 236 106 236 236-1 131-107 237-236 237z m0-360c-78 0-116 52-117 53-3 4-3 11 2 14 4 3 11 3 14-3 1-1 35-45 101-45 67 0 100 45 100 45 3 4 10 6 14 3 4-3 5-10 3-14-2-1-39-53-117-53z m-58 178c0-13-11-24-24-24-14 0-24 11-24 24 0 14 10 25 24 25 13 0 24-11 24-25z m162 0c0-13-10-24-24-24-13 0-24 11-24 24 0 14 11 25 24 25 14 0 24-11 24-25z"/>
<glyph unicode="&#57488;" d="M257 0c-143 0-257 114-257 255 0 143 114 257 257 257 142 0 256-114 256-257-1-141-115-255-256-255z m0 492c-131 0-237-106-237-237 0-130 106-236 237-236 130 0 236 106 236 236-1 131-107 237-236 237z m-61-182c0-13-11-24-24-24-13 0-24 11-24 24 0 14 11 25 24 25 13 0 24-11 24-25z m163 0c0-13-11-24-24-24-14 0-25 11-25 24 0 14 11 25 25 25 13 0 24-11 24-25z m-102-207c-100 0-120 93-120 95l-3 12 245 0-3-12c0-2-20-95-119-95z m-97 86c8-21 34-65 97-65 63 0 88 43 96 65z"/>
<glyph unicode="&#57489;" d="M257 0c-143 0-257 114-257 255 0 143 114 257 257 257 142 0 256-114 256-257-1-141-115-255-256-255z m0 492c-131 0-237-106-237-237 0-130 106-236 237-236 130 0 236 106 236 236-1 131-107 237-236 237z m0-389c-100 0-120 93-120 95l-3 12 245 0-3-12c0-2-20-95-119-95z m-97 86c8-21 34-65 97-65 63 0 88 43 96 65z m-19 108c-1 0-4 0-5 1-6 3-7 10-3 14 0 1 16 25 40 27 15 1 30-8 43-26 3-4 3-11-2-13-4-3-11-3-14 2-9 12-17 18-25 18-11 0-22-12-24-16-5-4-7-7-10-7z m233 0c-3 0-7 1-8 4-10 12-18 17-26 17-11 0-22-12-24-16-3-4-10-6-14-2-4 2-6 9-2 13 0 1 16 26 40 26 16 0 30-8 43-26 3-4 3-11-3-13-2-2-4-3-6-3z"/>
<glyph unicode="&#57490;" d="M512 256c0 19-10 38-27 46 12 14 15 34 8 53-7 17-24 29-42 31 5 17 1 37-14 51-10 10-22 15-36 15-5 0-10 0-15-1-2 18-14 35-31 42-17 7-38 4-53-8-8 17-27 27-46 27-19 0-38-10-46-27-14 12-34 15-53 8-17-8-29-25-31-42-5 0-10 1-15 1-14 0-26-5-36-15-14-14-19-34-14-51-18-2-34-14-42-33-7-18-4-37 8-53-17-6-27-25-27-44 0-19 10-38 27-46-12-14-15-34-8-53 7-17 24-29 42-31-5-17-1-37 14-51 10-10 22-15 36-15 5 0 10 0 15 1 2-18 14-35 31-42 17-7 38-4 53 8 8-17 26-27 46-27 20 0 38 10 46 27 14-12 34-15 53-8 19 7 29 24 31 42 5-1 10-1 15-1 14 0 27 5 36 15 14 14 19 34 14 51 18 2 35 14 42 31 7 19 4 38-8 53 17 8 27 27 27 46z m-253-128c0 0-1 0-1 0 0 0-2 0-2 0-5 3-119 89-119 154 0 44 32 70 63 70 20 0 46-12 59-48 14 34 40 48 60 48 31 0 63-26 63-70-1-65-117-151-123-154z"/>
<glyph unicode="&#57491;" d="M242 236c22-18 45-36 45-73 0-49-47-99-139-99-80 0-116 39-116 77 0 10 3 42 42 65 27 16 61 21 85 23-4 7-8 15-8 26 0 4 0 7 1 10l-4 0c-19 0-46 4-67 26-15 15-24 36-24 57 0 26 13 53 35 71 32 25 69 29 94 29l134 0-60-33-13 0c11-13 23-31 23-58 0-40-25-59-45-74l0-1c-6-6-11-10-11-17 0-6 4-10 10-15z m-125 136c0-13 4-33 14-51 7-12 21-27 41-27 10 0 21 4 28 11 10 10 10 25 10 30 0 18-6 37-15 53-8 13-20 28-40 28-11 0-23-5-29-13-6-7-9-18-9-31z m121-228c0 20-13 31-50 56-3 0-4 1-8 1-6 0-31-2-50-8-16-6-38-16-38-42 0-31 32-51 80-51 41 0 66 17 66 44z m164 226l78 0 0-34-78 0 0-81-34 0 0 81-80 0 0 34 80 0 0 78 34 0z"/>
<glyph unicode="&#57492;" d="M288 320l64 0-8-64-56 0 0-192-83 0 0 192-45 0 0 64 45 0 0 43c0 54 23 85 91 85l56 0 0-64-34 0c-27 0-30-9-30-26z m42-48l4 32-62 0 0 54c0 10 1 21 9 30 10 11 25 12 37 12l18 0 0 32-40 0c-28 0-49-6-60-18-10-11-15-27-15-51l0-59-45 0 0-32 45 0 0-192 51 0 0 192z"/>
<glyph unicode="&#57493;" d="M224 430c12-10 36-30 36-68 0-37-21-55-43-72-7-7-15-13-15-24 0-11 8-18 14-22l18-14c23-19 43-36 43-71 0-47-47-95-135-95-74 0-110 35-110 72 0 18 10 44 40 62 32 19 75 21 98 23-7 9-16 18-16 34 0 9 3 14 5 20-6 0-11-1-16-1-54 0-85 40-85 79 0 23 10 48 32 67 29 24 64 28 92 28l106 0-33-18z m-37-224c-4 0-7 1-12 1-5 0-32-1-54-8-11-4-44-16-44-52 0-36 36-62 91-62 49 0 75 24 75 55 0 26-17 39-56 66z m15 96c12 12 13 28 13 37 0 36-22 92-65 92-13 0-28-6-36-16-9-11-11-24-11-37 0-34 20-90 64-90 13 0 27 6 35 14z m278 68l0-18-78 0 0-81-18 0 0 81-80 0 0 18 80 0 0 78 18 0 0-78z"/>
<glyph unicode="&#57494;" d="M256 480c124 0 224-100 224-224 0-124-100-224-224-224-124 0-224 100-224 224 0 124 100 224 224 224z m136-360c36 36 56 85 56 136 0 51-20 100-56 136-36 36-85 56-136 56-51 0-100-20-136-56-36-36-56-85-56-136 0-51 20-100 56-136 14-14 31-25 48-34 1 6 2 10 3 16 4 18 29 122 29 122 0 0-8 15-8 36 0 33 20 58 44 58 20 0 30-16 30-34 0-20-13-51-20-79-6-24 12-43 35-43 42 0 71 54 71 119 0 49-33 85-93 85-68 0-110-50-110-107 0-20 6-33 15-44 4-5 5-6 3-12-1-4-4-14-5-18-2-6-6-8-11-6-31 13-46 48-46 86 0 64 54 140 160 140 86 0 142-63 142-129 0-88-49-153-121-153-24 0-47 13-55 28 0 0-12-52-15-62-2-6-4-13-7-19 15-4 31-6 47-6 51 0 100 20 136 56z"/>
<glyph unicode="&#57495;" d="M492 402c-13-20-29-36-48-50l0-12c0-128-98-276-276-276-55 0-105 16-148 44 8-1 15-2 23-2 45 0 87 16 120 42-42 1-78 29-90 67 6-1 12-2 18-2 9 0 18 2 26 4-44 9-78 48-78 95l0 1c13-7 28-12 44-12-26 17-43 47-43 81 0 18 5 34 13 48 48-59 119-97 199-101-2 7-2 14-2 22 0 54 43 97 97 97 28 0 52-12 70-31 22 4 43 13 62 24-7-23-23-42-43-54 20 2 39 7 56 15z m-58-37c3 2 8 6 11 8-2 0-11-2-19-1-8 1-21 5-21 5 0 0 14 13 18 17l11 11c-4-1-10-2-14-3l-8-2-6 6c-15 16-37 26-59 26-45 0-81-37-81-81 0-6 1-12 2-18l5-21-22 1c-42 2-81 13-118 32-28 14-53 34-75 56-1-6-2-13-2-19 0-27 14-53 36-68 0 0 33-23 46-29-24-2-56 0-56 0-8 0-16 1-24 3 8-28 32-50 62-56l61-10-61-21c-7-2-14-3-21-3 15-20 38-34 64-34l45-1-35-28c-18-14-38-25-60-33-10-3-19-6-29-8 27-9 55-14 84-14 40 0 78 8 112 24 31 14 58 34 81 60 22 24 38 53 50 84 11 30 17 62 17 92l0 12-1 8z"/>
<glyph unicode="&#57496;" d="M493 350c-4 3-39 7-70 7-11 0-23 0-35-2-44-2-85-14-110-23-8-4-17-6-22-6-5 0-12 4-22 6-27 9-67 20-110 23-11 0-23 2-35 2-30 0-66-2-73-7-15-9-5-51-5-51 2-3 4-7 9-9 1-5 3-16 5-25 5-20 8-43 15-58 13-29 51-48 93-48 28 0 55 9 74 27 12 12 22 30 32 57 2 4 4 9 5 16 2 4 2 9 4 11 1 0 3 2 6 2 4 0 4 0 6 0 1-4 5-13 6-18 2-4 4-7 4-11 10-25 20-45 32-58 19-16 45-27 74-27 42 0 80 20 93 49 7 13 12 36 15 58 2 9 4 19 5 25 5 2 7 5 9 9 0 0 10 42-5 51z m-451-36c-7 0-14 3-14 5 0 2 7 4 14 4 8 0 13-2 13-6 0-2-6-3-13-3z m142-116c-12-11-31-14-49-14-25 0-53 7-63 20-18 21-20 92-11 106 5 5 13 16 55 16 7 0 14 0 22 0 61-5 71-20 74-25 11-22-1-79-28-103z m256 6c-10-13-37-20-62-20-19 0-37 5-49 14-27 24-39 81-29 103 4 5 14 22 74 25 9 0 16 0 22 0 43 0 51-11 56-18 9-13 7-83-12-104z m26 110c-7 0-14 1-14 3 0 4 5 6 14 6 6 0 13-2 13-4 0-2-7-5-13-5z"/>
<glyph unicode="&#57497;" d="M388 233c0 8 4 28 7 48 3 21 8 41 8 53 0 6-3 13-8 23-3 8-8 18-13 31-7 17-7 42-7 60 0 15 0 23-3 28-5 10-30 20-40 23l-7 0c-16-18-48-48-63-49l-13 0c-15 0-46 30-63 49 0 0 0 0-2 0l-5 0c-9-3-34-13-39-23-2-3-2-11-3-26 0-19 0-43-7-60-3-13-8-23-11-31-5-10-9-19-9-25 0-12 3-32 9-53 1-20 5-40 5-48 0-7 0-20 1-37 2-28 5-68 4-101-2-41-10-76-10-76 0-2 0-3 1-5 2-2 4-2 5-2l262 0c2 0 3 2 5 2 2 0 2 3 2 5 0 0-10 38-10 81 0 33 1 72 3 98 0 15 1 28 1 35z m-170 127c-9 4-15 10-20 17-18 25-18 59-15 84 10-8 27-25 32-44 4-22 3-45 3-57z m63-3c-9-2-17-3-27-3-10 0-18 1-26 3 1 12 3 37-4 63-6 28-31 48-41 56 0 2 0 4 0 4l0 1c18-15 48-43 66-44l13 0c19 0 48 29 63 44l0-1c0-2 0-2 0-4-9-6-34-28-41-56-7-27-5-53-3-63z m34 22c-5-7-13-14-19-17-2 12-2 33 3 56 5 20 21 37 31 45 2-27 2-61-15-84z"/>
<glyph unicode="&#57498;" d="M399 394l-68 44 7 10 60-38c-6 49-18 82-35 86-11 1-56 3-109 3-52 0-96-2-108-4-17-3-30-38-35-89l65 41 7-11-74-47c-8-103 0-260 13-377l269 0c12 118 21 277 8 382z"/>
<glyph unicode="&#57499;" d="M309 417c6 27 11 64 11 72 0 0-4 11-21 11-21 0-34-12-34-19l0-7-14 0 0 7c0 7-14 20-28 20-10 0-22-8-28-13 0-11 6-45 11-71l103 0z m-105-24l105 0-1 10-102 0z m126-64c-3 24-14 43-17 50l-112 0c-4-7-14-28-18-50-3-20-1-108 2-185 0-59 0-111 0-133l142 0c-2 21 0 74 2 133 1 78 5 166 1 185z"/>
<glyph unicode="&#57500;" d="M495 114c-10 5-24 5-34 5 0 7 0 15 0 27l0 3-3 2c0 0-44 18-87 32l-2 0-1-2c-12-7-90-35-149-28-5 8-10 18-13 26-4 5-5 10-9 15-6 10-33 30-53 45 5 15 18 60 15 79-2 15-25 57-33 73-33 62-38 62-43 60-9-1-37-26-56-62-16-33-18-76-18-80l2-3c3-10 16-48 21-80 6-37 17-159 17-160l0-5 35 0 0 192c0 1 4 3 7 5l43-27c20-13 49-34 52-42 2-5 5-10 8-15 24-43 57-108 137-108 2 0 4 0 4 0 95 3 163 15 163 15l3 3c2 8 5 27-6 30z m-426-42l-10 0-2 10 12 0z m2 181l0-159-14 0c-3 38-10 107-13 132-3 25-12 52-17 68l52-30c-6-1-8-6-8-11z m47 3l-95 57c0 11 3 45 16 72 15 26 35 48 45 53 14-17 60-103 64-120 1-15-7-50-14-70-10 5-15 8-16 8z m110-115c48-4 105 13 131 25-26-62-88-62-100-62-13 12-23 23-31 37z m111-62c-1 0-3 0-6 0-2 0-2 0-4 0-21 0-40 5-55 13 29 4 77 19 99 77 1 0 5-1 6-1 21-35-29-80-40-89z m65 5c-13-2-30-2-45-3 19 16 45 50 37 81 4-1 8-3 12-3 3-6 25-45-4-75z m44 4c-9-2-17-2-25-4 15 25 8 52 1 69 12-5 20-9 26-10z m11 1l0 18c9 0 22 0 30-3 2-2 2-7 2-10-5-2-17-3-32-5z"/>
</font>
</defs>
</svg>
